<svg width="30" height="30" viewBox="0 0 30 30" fill="none" xmlns="http://www.w3.org/2000/svg">
<path d="M15 30C23.2843 30 30 23.2843 30 15C30 6.71573 23.2843 0 15 0C6.71573 0 0 6.71573 0 15C0 23.2843 6.71573 30 15 30Z" fill="#E4E4E2"/>
<path opacity="0.1" d="M11.1672 21.7663L18.8801 29.4792C25.2681 27.7757 30 21.9555 30 14.9997C30 14.8577 30 14.7158 30 14.5738L23.9432 8.99023L11.1672 21.7663Z" fill="#263238"/>
<path d="M20.6309 7.90212C21.2934 7.23966 22.429 7.23966 23.0915 7.90212L24.4637 9.27436C25.1262 9.93682 25.1262 11.0725 24.4637 11.7349L14.0537 22.0977C13.3912 22.7602 12.2555 22.7602 11.5931 22.0977L10.2208 20.7255C9.55838 20.063 9.55838 18.9274 10.2208 18.2649L20.6309 7.90212Z" fill="#00B065"/>
<path d="M15.3785 18.3593C16.041 19.0218 16.041 20.1574 15.3785 20.8199L14.0063 22.1921C13.3438 22.8546 12.2082 22.8546 11.5457 22.1921L5.53627 16.1353C4.87381 15.4729 4.87381 14.3372 5.53627 13.6747L6.90851 12.3025C7.57097 11.64 8.70662 11.64 9.36908 12.3025L15.3785 18.3593Z" fill="#00B065"/>
</svg>
