<svg width="65" height="65" viewBox="0 0 65 65" fill="none" xmlns="http://www.w3.org/2000/svg">
<circle cx="32.5" cy="32.5" r="32.5" fill="#37474F"/>
<mask id="mask0" mask-type="alpha" maskUnits="userSpaceOnUse" x="0" y="0" width="65" height="65">
<circle cx="32.5" cy="32.5" r="32.5" fill="#37474F"/>
</mask>
<g mask="url(#mask0)">
<g opacity="0.5">
<path d="M12.6416 20.9037C12.6416 17.3304 15.5384 14.4336 19.1117 14.4336H46.0872C49.6606 14.4336 52.5574 17.3304 52.5574 20.9037V44.3953C52.5574 47.9687 49.6606 50.8654 46.0872 50.8654H19.1117C15.5384 50.8654 12.6416 47.9687 12.6416 44.3953V20.9037Z" fill="#263238"/>
<path d="M12.7411 21.0033C12.7411 17.4299 15.6379 14.5331 19.2113 14.5331H46.1868C49.7601 14.5331 52.6569 17.4299 52.6569 21.0033V44.4948C52.6569 48.0682 49.7601 50.965 46.1868 50.965H19.2113C15.6379 50.965 12.7411 48.0682 12.7411 44.4948V21.0033Z" fill="#263238"/>
<path d="M12.8407 21.1028C12.8407 17.5295 15.7375 14.6327 19.3108 14.6327H46.2863C49.8597 14.6327 52.7565 17.5295 52.7565 21.1028V44.5944C52.7565 48.1677 49.8597 51.0645 46.2863 51.0645H19.3108C15.7375 51.0645 12.8407 48.1677 12.8407 44.5944V21.1028Z" fill="#263238"/>
<path d="M12.9402 21.2024C12.9402 17.629 15.837 14.7322 19.4104 14.7322H46.3859C49.9592 14.7322 52.856 17.629 52.856 21.2024V44.6939C52.856 48.2673 49.9592 51.1641 46.3859 51.1641H19.4104C15.837 51.1641 12.9402 48.2673 12.9402 44.6939V21.2024Z" fill="#263238"/>
<path d="M13.0398 21.3019C13.0398 17.7285 15.9365 14.8318 19.5099 14.8318H46.4854C50.0588 14.8318 52.9555 17.7285 52.9555 21.3019V44.7935C52.9555 48.3668 50.0588 51.2636 46.4854 51.2636H19.5099C15.9365 51.2636 13.0398 48.3668 13.0398 44.7935V21.3019Z" fill="#263238"/>
<path d="M13.1393 21.4014C13.1393 17.8281 16.0361 14.9313 19.6094 14.9313H46.5849C50.1583 14.9313 53.0551 17.8281 53.0551 21.4014V44.893C53.0551 48.4664 50.1583 51.3631 46.5849 51.3631H19.6094C16.0361 51.3631 13.1393 48.4664 13.1393 44.893V21.4014Z" fill="#263238"/>
<path d="M13.2388 21.501C13.2388 17.9276 16.1356 15.0308 19.709 15.0308H46.6845C50.2578 15.0308 53.1546 17.9276 53.1546 21.501V44.9925C53.1546 48.5659 50.2578 51.4627 46.6845 51.4627H19.709C16.1356 51.4627 13.2388 48.5659 13.2388 44.9925V21.501Z" fill="#263238"/>
<path d="M13.3384 21.6005C13.3384 18.0272 16.2352 15.1304 19.8085 15.1304H46.784C50.3574 15.1304 53.2542 18.0272 53.2542 21.6005V45.0921C53.2542 48.6654 50.3574 51.5622 46.784 51.5622H19.8085C16.2352 51.5622 13.3384 48.6654 13.3384 45.0921V21.6005Z" fill="#263238"/>
<path d="M13.4379 21.7001C13.4379 18.1267 16.3347 15.2299 19.9081 15.2299H46.8836C50.4569 15.2299 53.3537 18.1267 53.3537 21.7001V45.1916C53.3537 48.765 50.4569 51.6618 46.8836 51.6618H19.9081C16.3347 51.6618 13.4379 48.765 13.4379 45.1916V21.7001Z" fill="#263238"/>
<path d="M13.5375 21.7996C13.5375 18.2262 16.4342 15.3295 20.0076 15.3295H46.9831C50.5565 15.3295 53.4532 18.2262 53.4532 21.7996V45.2912C53.4532 48.8645 50.5565 51.7613 46.9831 51.7613H20.0076C16.4342 51.7613 13.5375 48.8645 13.5375 45.2912V21.7996Z" fill="#263238"/>
<path d="M13.637 21.8991C13.637 18.3258 16.5338 15.429 20.1071 15.429H47.0826C50.656 15.429 53.5528 18.3258 53.5528 21.8991V45.3907C53.5528 48.9641 50.656 51.8608 47.0826 51.8608H20.1071C16.5338 51.8608 13.637 48.9641 13.637 45.3907V21.8991Z" fill="#263238"/>
<path d="M13.7365 21.9987C13.7365 18.4253 16.6333 15.5285 20.2067 15.5285H47.1822C50.7555 15.5285 53.6523 18.4253 53.6523 21.9987V45.4902C53.6523 49.0636 50.7555 51.9604 47.1822 51.9604H20.2067C16.6333 51.9604 13.7365 49.0636 13.7365 45.4902V21.9987Z" fill="#263238"/>
<path d="M13.8361 22.0982C13.8361 18.5249 16.7329 15.6281 20.3062 15.6281H47.2817C50.8551 15.6281 53.7519 18.5249 53.7519 22.0982V45.5898C53.7519 49.1631 50.8551 52.0599 47.2817 52.0599H20.3062C16.7329 52.0599 13.8361 49.1631 13.8361 45.5898V22.0982Z" fill="#263238"/>
<path d="M13.9356 22.1978C13.9356 18.6244 16.8324 15.7276 20.4058 15.7276H47.3813C50.9546 15.7276 53.8514 18.6244 53.8514 22.1978V45.6893C53.8514 49.2627 50.9546 52.1595 47.3813 52.1595H20.4058C16.8324 52.1595 13.9356 49.2627 13.9356 45.6893V22.1978Z" fill="#263238"/>
<path d="M14.0352 22.2973C14.0352 18.7239 16.9319 15.8272 20.5053 15.8272H47.4808C51.0542 15.8272 53.9509 18.7239 53.9509 22.2973V45.7889C53.9509 49.3622 51.0542 52.259 47.4808 52.259H20.5053C16.9319 52.259 14.0352 49.3622 14.0352 45.7889V22.2973Z" fill="#263238"/>
<path d="M14.1347 22.3968C14.1347 18.8235 17.0315 15.9267 20.6048 15.9267H47.5803C51.1537 15.9267 54.0505 18.8235 54.0505 22.3968V45.8884C54.0505 49.4618 51.1537 52.3585 47.5803 52.3585H20.6048C17.0315 52.3585 14.1347 49.4618 14.1347 45.8884V22.3968Z" fill="#263238"/>
<path d="M14.2343 22.4964C14.2343 18.923 17.131 16.0262 20.7044 16.0262H47.6799C51.2532 16.0262 54.15 18.923 54.15 22.4964V45.988C54.15 49.5613 51.2532 52.4581 47.6799 52.4581H20.7044C17.131 52.4581 14.2343 49.5613 14.2343 45.988V22.4964Z" fill="#263238"/>
<path d="M14.3338 22.5959C14.3338 19.0226 17.2306 16.1258 20.8039 16.1258H47.7794C51.3528 16.1258 54.2496 19.0226 54.2496 22.5959V46.0875C54.2496 49.6609 51.3528 52.5576 47.7794 52.5576H20.8039C17.2306 52.5576 14.3338 49.6609 14.3338 46.0875V22.5959Z" fill="#263238"/>
<path d="M14.4333 22.6955C14.4333 19.1221 17.3301 16.2253 20.9035 16.2253H47.879C51.4523 16.2253 54.3491 19.1221 54.3491 22.6955V46.187C54.3491 49.7604 51.4523 52.6572 47.879 52.6572H20.9035C17.3301 52.6572 14.4333 49.7604 14.4333 46.187V22.6955Z" fill="#263238"/>
<path d="M14.5329 22.795C14.5329 19.2216 17.4297 16.3249 21.003 16.3249H47.9785C51.5519 16.3249 54.4486 19.2216 54.4486 22.795V46.2866C54.4486 49.8599 51.5519 52.7567 47.9785 52.7567H21.003C17.4297 52.7567 14.5329 49.8599 14.5329 46.2866V22.795Z" fill="#263238"/>
<path d="M14.6324 22.8945C14.6324 19.3212 17.5292 16.4244 21.1026 16.4244H48.078C51.6514 16.4244 54.5482 19.3212 54.5482 22.8945V46.3861C54.5482 49.9595 51.6514 52.8563 48.078 52.8563H21.1026C17.5292 52.8563 14.6324 49.9595 14.6324 46.3861V22.8945Z" fill="#263238"/>
<path d="M14.732 22.9941C14.732 19.4207 17.6287 16.5239 21.2021 16.5239H48.1776C51.7509 16.5239 54.6477 19.4207 54.6477 22.9941V46.4857C54.6477 50.059 51.7509 52.9558 48.1776 52.9558H21.2021C17.6287 52.9558 14.732 50.059 14.732 46.4857V22.9941Z" fill="#263238"/>
<path d="M14.8315 23.0936C14.8315 19.5203 17.7283 16.6235 21.3016 16.6235H48.2771C51.8505 16.6235 54.7473 19.5203 54.7473 23.0936V46.5852C54.7473 50.1586 51.8505 53.0553 48.2771 53.0553H21.3016C17.7283 53.0553 14.8315 50.1586 14.8315 46.5852V23.0936Z" fill="#263238"/>
<path d="M14.931 23.1932C14.931 19.6198 17.8278 16.723 21.4012 16.723H48.3767C51.95 16.723 54.8468 19.6198 54.8468 23.1932V46.6847C54.8468 50.2581 51.95 53.1549 48.3767 53.1549H21.4012C17.8278 53.1549 14.931 50.2581 14.931 46.6847V23.1932Z" fill="#263238"/>
<path d="M15.0306 23.2927C15.0306 19.7193 17.9274 16.8226 21.5007 16.8226H48.4762C52.0496 16.8226 54.9464 19.7193 54.9464 23.2927V46.7843C54.9464 50.3576 52.0496 53.2544 48.4762 53.2544H21.5007C17.9274 53.2544 15.0306 50.3576 15.0306 46.7843V23.2927Z" fill="#263238"/>
<path d="M15.1301 23.3922C15.1301 19.8189 18.0269 16.9221 21.6003 16.9221H48.5758C52.1491 16.9221 55.0459 19.8189 55.0459 23.3922V46.8838C55.0459 50.4572 52.1491 53.354 48.5758 53.354H21.6003C18.0269 53.354 15.1301 50.4572 15.1301 46.8838V23.3922Z" fill="#263238"/>
<path d="M15.2297 23.4918C15.2297 19.9184 18.1264 17.0216 21.6998 17.0216H48.6753C52.2486 17.0216 55.1454 19.9184 55.1454 23.4918V46.9834C55.1454 50.5567 52.2486 53.4535 48.6753 53.4535H21.6998C18.1264 53.4535 15.2297 50.5567 15.2297 46.9834V23.4918Z" fill="#263238"/>
<path d="M15.3292 23.5913C15.3292 20.018 18.226 17.1212 21.7993 17.1212H48.7748C52.3482 17.1212 55.245 20.018 55.245 23.5913V47.0829C55.245 50.6563 52.3482 53.553 48.7748 53.553H21.7993C18.226 53.553 15.3292 50.6563 15.3292 47.0829V23.5913Z" fill="#263238"/>
<path d="M15.4287 23.6909C15.4287 20.1175 18.3255 17.2207 21.8989 17.2207H48.8744C52.4477 17.2207 55.3445 20.1175 55.3445 23.6909V47.1824C55.3445 50.7558 52.4477 53.6526 48.8744 53.6526H21.8989C18.3255 53.6526 15.4287 50.7558 15.4287 47.1824V23.6909Z" fill="#263238"/>
<path d="M15.5283 23.7904C15.5283 20.217 18.4251 17.3203 21.9984 17.3203H48.9739C52.5473 17.3203 55.4441 20.217 55.4441 23.7904V47.282C55.4441 50.8553 52.5473 53.7521 48.9739 53.7521H21.9984C18.4251 53.7521 15.5283 50.8553 15.5283 47.282V23.7904Z" fill="#263238"/>
<path d="M15.6278 23.8899C15.6278 20.3166 18.5246 17.4198 22.098 17.4198H49.0735C52.6468 17.4198 55.5436 20.3166 55.5436 23.8899V47.3815C55.5436 50.9549 52.6468 53.8517 49.0735 53.8517H22.098C18.5246 53.8517 15.6278 50.9549 15.6278 47.3815V23.8899Z" fill="#263238"/>
<path d="M15.7274 23.9895C15.7274 20.4161 18.6241 17.5194 22.1975 17.5194H49.173C52.7464 17.5194 55.6431 20.4161 55.6431 23.9895V47.4811C55.6431 51.0544 52.7464 53.9512 49.173 53.9512H22.1975C18.6241 53.9512 15.7274 51.0544 15.7274 47.4811V23.9895Z" fill="#263238"/>
<path d="M15.8269 24.089C15.8269 20.5157 18.7237 17.6189 22.297 17.6189H49.2725C52.8459 17.6189 55.7427 20.5157 55.7427 24.089V47.5806C55.7427 51.154 52.8459 54.0507 49.2725 54.0507H22.297C18.7237 54.0507 15.8269 51.154 15.8269 47.5806V24.089Z" fill="#263238"/>
<path d="M15.9264 24.1886C15.9264 20.6152 18.8232 17.7184 22.3966 17.7184H49.3721C52.9454 17.7184 55.8422 20.6152 55.8422 24.1886V47.6801C55.8422 51.2535 52.9454 54.1503 49.3721 54.1503H22.3966C18.8232 54.1503 15.9264 51.2535 15.9264 47.6801V24.1886Z" fill="#263238"/>
<path d="M16.026 24.2881C16.026 20.7148 18.9228 17.818 22.4961 17.818H49.4716C53.045 17.818 55.9418 20.7148 55.9418 24.2881V47.7797C55.9418 51.353 53.045 54.2498 49.4716 54.2498H22.4961C18.9228 54.2498 16.026 51.353 16.026 47.7797V24.2881Z" fill="#263238"/>
<path d="M16.1255 24.3876C16.1255 20.8143 19.0223 17.9175 22.5957 17.9175H49.5712C53.1445 17.9175 56.0413 20.8143 56.0413 24.3876V47.8792C56.0413 51.4526 53.1445 54.3494 49.5712 54.3494H22.5957C19.0223 54.3494 16.1255 51.4526 16.1255 47.8792V24.3876Z" fill="#263238"/>
<path d="M16.2251 24.4872C16.2251 20.9138 19.1218 18.0171 22.6952 18.0171H49.6707C53.2441 18.0171 56.1408 20.9138 56.1408 24.4872V47.9788C56.1408 51.5521 53.2441 54.4489 49.6707 54.4489H22.6952C19.1218 54.4489 16.2251 51.5521 16.2251 47.9788V24.4872Z" fill="#263238"/>
<path d="M16.3246 24.5867C16.3246 21.0134 19.2214 18.1166 22.7947 18.1166H49.7702C53.3436 18.1166 56.2404 21.0134 56.2404 24.5867V48.0783C56.2404 51.6517 53.3436 54.5484 49.7702 54.5484H22.7947C19.2214 54.5484 16.3246 51.6517 16.3246 48.0783V24.5867Z" fill="#263238"/>
<path d="M16.4241 24.6863C16.4241 21.1129 19.3209 18.2161 22.8943 18.2161H49.8698C53.4431 18.2161 56.3399 21.1129 56.3399 24.6863V48.1778C56.3399 51.7512 53.4431 54.648 49.8698 54.648H22.8943C19.3209 54.648 16.4241 51.7512 16.4241 48.1778V24.6863Z" fill="#263238"/>
<path d="M16.5237 24.7858C16.5237 21.2125 19.4205 18.3157 22.9938 18.3157H49.9693C53.5427 18.3157 56.4395 21.2125 56.4395 24.7858V48.2774C56.4395 51.8507 53.5427 54.7475 49.9693 54.7475H22.9938C19.4205 54.7475 16.5237 51.8507 16.5237 48.2774V24.7858Z" fill="#263238"/>
<path d="M16.6232 24.8854C16.6232 21.312 19.52 18.4152 23.0934 18.4152H50.0689C53.6422 18.4152 56.539 21.312 56.539 24.8854V48.3769C56.539 51.9503 53.6422 54.8471 50.0689 54.8471H23.0934C19.52 54.8471 16.6232 51.9503 16.6232 48.3769V24.8854Z" fill="#263238"/>
<path d="M16.7228 24.9849C16.7228 21.4115 19.6195 18.5148 23.1929 18.5148H50.1684C53.7418 18.5148 56.6385 21.4115 56.6385 24.9849V48.4765C56.6385 52.0498 53.7418 54.9466 50.1684 54.9466H23.1929C19.6195 54.9466 16.7228 52.0498 16.7228 48.4765V24.9849Z" fill="#263238"/>
<path d="M16.8223 25.0844C16.8223 21.5111 19.7191 18.6143 23.2924 18.6143H50.2679C53.8413 18.6143 56.7381 21.5111 56.7381 25.0844V48.576C56.7381 52.1494 53.8413 55.0461 50.2679 55.0461H23.2924C19.7191 55.0461 16.8223 52.1494 16.8223 48.576V25.0844Z" fill="#263238"/>
<path d="M16.9218 25.184C16.9218 21.6106 19.8186 18.7138 23.392 18.7138H50.3675C53.9408 18.7138 56.8376 21.6106 56.8376 25.184V48.6755C56.8376 52.2489 53.9408 55.1457 50.3675 55.1457H23.392C19.8186 55.1457 16.9218 52.2489 16.9218 48.6755V25.184Z" fill="#263238"/>
<path d="M17.0214 25.2835C17.0214 21.7102 19.9182 18.8134 23.4915 18.8134H50.467C54.0404 18.8134 56.9372 21.7102 56.9372 25.2835V48.7751C56.9372 52.3484 54.0404 55.2452 50.467 55.2452H23.4915C19.9182 55.2452 17.0214 52.3484 17.0214 48.7751V25.2835Z" fill="#263238"/>
<path d="M17.1209 25.3831C17.1209 21.8097 20.0177 18.9129 23.5911 18.9129H50.5666C54.1399 18.9129 57.0367 21.8097 57.0367 25.3831V48.8746C57.0367 52.448 54.1399 55.3448 50.5666 55.3448H23.5911C20.0177 55.3448 17.1209 52.448 17.1209 48.8746V25.3831Z" fill="#263238"/>
<path d="M17.2205 25.4826C17.2205 21.9092 20.1172 19.0125 23.6906 19.0125H50.6661C54.2395 19.0125 57.1362 21.9092 57.1362 25.4826V48.9742C57.1362 52.5475 54.2395 55.4443 50.6661 55.4443H23.6906C20.1172 55.4443 17.2205 52.5475 17.2205 48.9742V25.4826Z" fill="#263238"/>
<path d="M17.32 25.5821C17.32 22.0088 20.2168 19.112 23.7901 19.112H50.7656C54.339 19.112 57.2358 22.0088 57.2358 25.5821V49.0737C57.2358 52.6471 54.339 55.5438 50.7656 55.5438H23.7901C20.2168 55.5438 17.32 52.6471 17.32 49.0737V25.5821Z" fill="#263238"/>
<path d="M17.4195 25.6817C17.4195 22.1083 20.3163 19.2115 23.8897 19.2115H50.8652C54.4385 19.2115 57.3353 22.1083 57.3353 25.6817V49.1732C57.3353 52.7466 54.4385 55.6434 50.8652 55.6434H23.8897C20.3163 55.6434 17.4195 52.7466 17.4195 49.1732V25.6817Z" fill="#263238"/>
<path d="M17.5191 25.7812C17.5191 22.2079 20.4159 19.3111 23.9892 19.3111H50.9647C54.5381 19.3111 57.4349 22.2079 57.4349 25.7812V49.2728C57.4349 52.8461 54.5381 55.7429 50.9647 55.7429H23.9892C20.4159 55.7429 17.5191 52.8461 17.5191 49.2728V25.7812Z" fill="#263238"/>
<path d="M17.6186 25.8808C17.6186 22.3074 20.5154 19.4106 24.0888 19.4106H51.0643C54.6376 19.4106 57.5344 22.3074 57.5344 25.8808V49.3723C57.5344 52.9457 54.6376 55.8425 51.0643 55.8425H24.0888C20.5154 55.8425 17.6186 52.9457 17.6186 49.3723V25.8808Z" fill="#263238"/>
<path d="M17.7182 25.9803C17.7182 22.4069 20.615 19.5102 24.1883 19.5102H51.1638C54.7372 19.5102 57.6339 22.4069 57.6339 25.9803V49.4719C57.6339 53.0452 54.7372 55.942 51.1638 55.942H24.1883C20.615 55.942 17.7182 53.0452 17.7182 49.4719V25.9803Z" fill="#263238"/>
<path d="M17.8177 26.0798C17.8177 22.5065 20.7145 19.6097 24.2878 19.6097H51.2633C54.8367 19.6097 57.7335 22.5065 57.7335 26.0798V49.5714C57.7335 53.1448 54.8367 56.0415 51.2633 56.0415H24.2878C20.7145 56.0415 17.8177 53.1448 17.8177 49.5714V26.0798Z" fill="#263238"/>
<path d="M17.9173 26.1794C17.9173 22.606 20.814 19.7092 24.3874 19.7092H51.3629C54.9362 19.7092 57.833 22.606 57.833 26.1794V49.671C57.833 53.2443 54.9362 56.1411 51.3629 56.1411H24.3874C20.814 56.1411 17.9173 53.2443 17.9173 49.671V26.1794Z" fill="#263238"/>
<path d="M18.0168 26.2789C18.0168 22.7056 20.9136 19.8088 24.4869 19.8088H51.4624C55.0358 19.8088 57.9326 22.7056 57.9326 26.2789V49.7705C57.9326 53.3438 55.0358 56.2406 51.4624 56.2406H24.4869C20.9136 56.2406 18.0168 53.3438 18.0168 49.7705V26.2789Z" fill="#263238"/>
<path d="M18.1163 26.3785C18.1163 22.8051 21.0131 19.9083 24.5865 19.9083H51.562C55.1353 19.9083 58.0321 22.8051 58.0321 26.3785V49.87C58.0321 53.4434 55.1353 56.3402 51.562 56.3402H24.5865C21.0131 56.3402 18.1163 53.4434 18.1163 49.87V26.3785Z" fill="#263238"/>
<path d="M18.2159 26.478C18.2159 22.9046 21.1127 20.0079 24.686 20.0079H51.6615C55.2349 20.0079 58.1316 22.9046 58.1316 26.478V49.9696C58.1316 53.5429 55.2349 56.4397 51.6615 56.4397H24.686C21.1127 56.4397 18.2159 53.5429 18.2159 49.9696V26.478Z" fill="#263238"/>
<path d="M18.3154 26.5775C18.3154 23.0042 21.2122 20.1074 24.7856 20.1074H51.7611C55.3344 20.1074 58.2312 23.0042 58.2312 26.5775V50.0691C58.2312 53.6425 55.3344 56.5392 51.7611 56.5392H24.7856C21.2122 56.5392 18.3154 53.6425 18.3154 50.0691V26.5775Z" fill="#263238"/>
<path d="M18.415 26.6771C18.415 23.1037 21.3117 20.2069 24.8851 20.2069H51.8606C55.4339 20.2069 58.3307 23.1037 58.3307 26.6771V50.1687C58.3307 53.742 55.4339 56.6388 51.8606 56.6388H24.8851C21.3117 56.6388 18.415 53.742 18.415 50.1687V26.6771Z" fill="#263238"/>
<path d="M18.5145 26.7766C18.5145 23.2033 21.4113 20.3065 24.9846 20.3065H51.9601C55.5335 20.3065 58.4303 23.2033 58.4303 26.7766V50.2682C58.4303 53.8416 55.5335 56.7383 51.9601 56.7383H24.9846C21.4113 56.7383 18.5145 53.8416 18.5145 50.2682V26.7766Z" fill="#263238"/>
<path d="M18.614 26.8762C18.614 23.3028 21.5108 20.406 25.0842 20.406H52.0597C55.633 20.406 58.5298 23.3028 58.5298 26.8762V50.3677C58.5298 53.9411 55.633 56.8379 52.0597 56.8379H25.0842C21.5108 56.8379 18.614 53.9411 18.614 50.3677V26.8762Z" fill="#263238"/>
<path d="M18.7136 26.9757C18.7136 23.4023 21.6104 20.5056 25.1837 20.5056H52.1592C55.7326 20.5056 58.6294 23.4023 58.6294 26.9757V50.4673C58.6294 54.0406 55.7326 56.9374 52.1592 56.9374H25.1837C21.6104 56.9374 18.7136 54.0406 18.7136 50.4673V26.9757Z" fill="#263238"/>
<path d="M18.8131 27.0752C18.8131 23.5019 21.7099 20.6051 25.2833 20.6051H52.2588C55.8321 20.6051 58.7289 23.5019 58.7289 27.0752V50.5668C58.7289 54.1402 55.8321 57.037 52.2588 57.037H25.2833C21.7099 57.037 18.8131 54.1402 18.8131 50.5668V27.0752Z" fill="#263238"/>
<path d="M18.9127 27.1748C18.9127 23.6014 21.8094 20.7046 25.3828 20.7046H52.3583C55.9317 20.7046 58.8284 23.6014 58.8284 27.1748V50.6664C58.8284 54.2397 55.9317 57.1365 52.3583 57.1365H25.3828C21.8094 57.1365 18.9127 54.2397 18.9127 50.6664V27.1748Z" fill="#263238"/>
<path d="M19.0122 27.2743C19.0122 23.701 21.909 20.8042 25.4823 20.8042H52.4578C56.0312 20.8042 58.928 23.701 58.928 27.2743V50.7659C58.928 54.3393 56.0312 57.236 52.4578 57.236H25.4823C21.909 57.236 19.0122 54.3393 19.0122 50.7659V27.2743Z" fill="#263238"/>
<path d="M19.1117 27.3739C19.1117 23.8005 22.0085 20.9037 25.5819 20.9037H52.5574C56.1307 20.9037 59.0275 23.8005 59.0275 27.3739V50.8654C59.0275 54.4388 56.1307 57.3356 52.5574 57.3356H25.5819C22.0085 57.3356 19.1117 54.4388 19.1117 50.8654V27.3739Z" fill="#263238"/>
<path d="M19.2113 27.4734C19.2113 23.9001 22.1081 21.0033 25.6814 21.0033H52.6569C56.2303 21.0033 59.1271 23.9001 59.1271 27.4734V50.965C59.1271 54.5383 56.2303 57.4351 52.6569 57.4351H25.6814C22.1081 57.4351 19.2113 54.5383 19.2113 50.965V27.4734Z" fill="#263238"/>
<path d="M19.3108 27.5729C19.3108 23.9996 22.2076 21.1028 25.781 21.1028H52.7565C56.3298 21.1028 59.2266 23.9996 59.2266 27.5729V51.0645C59.2266 54.6379 56.3298 57.5347 52.7565 57.5347H25.781C22.2076 57.5347 19.3108 54.6379 19.3108 51.0645V27.5729Z" fill="#263238"/>
<path d="M19.4104 27.6725C19.4104 24.0991 22.3071 21.2024 25.8805 21.2024H52.856C56.4294 21.2024 59.3261 24.0991 59.3261 27.6725V51.1641C59.3261 54.7374 56.4294 57.6342 52.856 57.6342H25.8805C22.3071 57.6342 19.4104 54.7374 19.4104 51.1641V27.6725Z" fill="#263238"/>
<path d="M19.5099 27.772C19.5099 24.1987 22.4067 21.3019 25.98 21.3019H52.9555C56.5289 21.3019 59.4257 24.1987 59.4257 27.772V51.2636C59.4257 54.837 56.5289 57.7337 52.9555 57.7337H25.98C22.4067 57.7337 19.5099 54.837 19.5099 51.2636V27.772Z" fill="#263238"/>
<path d="M19.6094 27.8716C19.6094 24.2982 22.5062 21.4014 26.0796 21.4014H53.0551C56.6284 21.4014 59.5252 24.2982 59.5252 27.8716V51.3631C59.5252 54.9365 56.6284 57.8333 53.0551 57.8333H26.0796C22.5062 57.8333 19.6094 54.9365 19.6094 51.3631V27.8716Z" fill="#263238"/>
<path d="M19.709 27.9711C19.709 24.3978 22.6058 21.501 26.1791 21.501H53.1546C56.728 21.501 59.6248 24.3978 59.6248 27.9711V51.4627C59.6248 55.036 56.728 57.9328 53.1546 57.9328H26.1791C22.6058 57.9328 19.709 55.036 19.709 51.4627V27.9711Z" fill="#263238"/>
<path d="M19.8085 28.0707C19.8085 24.4973 22.7053 21.6005 26.2787 21.6005H53.2542C56.8275 21.6005 59.7243 24.4973 59.7243 28.0707V51.5622C59.7243 55.1356 56.8275 58.0324 53.2542 58.0324H26.2787C22.7053 58.0324 19.8085 55.1356 19.8085 51.5622V28.0707Z" fill="#263238"/>
<path d="M19.9081 28.1702C19.9081 24.5968 22.8048 21.7001 26.3782 21.7001H53.3537C56.9271 21.7001 59.8238 24.5968 59.8238 28.1702V51.6618C59.8238 55.2351 56.9271 58.1319 53.3537 58.1319H26.3782C22.8048 58.1319 19.9081 55.2351 19.9081 51.6618V28.1702Z" fill="#263238"/>
<path d="M20.0076 28.2697C20.0076 24.6964 22.9044 21.7996 26.4777 21.7996H53.4532C57.0266 21.7996 59.9234 24.6964 59.9234 28.2697V51.7613C59.9234 55.3347 57.0266 58.2314 53.4532 58.2314H26.4777C22.9044 58.2314 20.0076 55.3347 20.0076 51.7613V28.2697Z" fill="#263238"/>
<path d="M20.1071 28.3693C20.1071 24.7959 23.0039 21.8991 26.5773 21.8991H53.5528C57.1261 21.8991 60.0229 24.7959 60.0229 28.3693V51.8608C60.0229 55.4342 57.1261 58.331 53.5528 58.331H26.5773C23.0039 58.331 20.1071 55.4342 20.1071 51.8608V28.3693Z" fill="#263238"/>
<path d="M20.2067 28.4688C20.2067 24.8955 23.1035 21.9987 26.6768 21.9987H53.6523C57.2257 21.9987 60.1225 24.8955 60.1225 28.4688V51.9604C60.1225 55.5337 57.2257 58.4305 53.6523 58.4305H26.6768C23.1035 58.4305 20.2067 55.5337 20.2067 51.9604V28.4688Z" fill="#263238"/>
<path d="M20.3062 28.5684C20.3062 24.995 23.203 22.0982 26.7764 22.0982H53.7519C57.3252 22.0982 60.222 24.995 60.222 28.5684V52.0599C60.222 55.6333 57.3252 58.5301 53.7519 58.5301H26.7764C23.203 58.5301 20.3062 55.6333 20.3062 52.0599V28.5684Z" fill="#263238"/>
<path d="M20.4058 28.6679C20.4058 25.0945 23.3025 22.1978 26.8759 22.1978H53.8514C57.4248 22.1978 60.3215 25.0945 60.3215 28.6679V52.1595C60.3215 55.7328 57.4248 58.6296 53.8514 58.6296H26.8759C23.3025 58.6296 20.4058 55.7328 20.4058 52.1595V28.6679Z" fill="#263238"/>
<path d="M20.5053 28.7674C20.5053 25.1941 23.4021 22.2973 26.9754 22.2973H53.9509C57.5243 22.2973 60.4211 25.1941 60.4211 28.7674V52.259C60.4211 55.8324 57.5243 58.7291 53.9509 58.7291H26.9754C23.4021 58.7291 20.5053 55.8324 20.5053 52.259V28.7674Z" fill="#263238"/>
<path d="M20.6048 28.867C20.6048 25.2936 23.5016 22.3968 27.075 22.3968H54.0505C57.6238 22.3968 60.5206 25.2936 60.5206 28.867V52.3585C60.5206 55.9319 57.6238 58.8287 54.0505 58.8287H27.075C23.5016 58.8287 20.6048 55.9319 20.6048 52.3585V28.867Z" fill="#263238"/>
<path d="M20.7044 28.9665C20.7044 25.3932 23.6012 22.4964 27.1745 22.4964H54.15C57.7234 22.4964 60.6202 25.3932 60.6202 28.9665V52.4581C60.6202 56.0314 57.7234 58.9282 54.15 58.9282H27.1745C23.6012 58.9282 20.7044 56.0314 20.7044 52.4581V28.9665Z" fill="#263238"/>
<path d="M20.8039 29.0661C20.8039 25.4927 23.7007 22.5959 27.2741 22.5959H54.2496C57.8229 22.5959 60.7197 25.4927 60.7197 29.0661V52.5576C60.7197 56.131 57.8229 59.0278 54.2496 59.0278H27.2741C23.7007 59.0278 20.8039 56.131 20.8039 52.5576V29.0661Z" fill="#263238"/>
<path d="M20.9035 29.1656C20.9035 25.5922 23.8003 22.6955 27.3736 22.6955H54.3491C57.9225 22.6955 60.8192 25.5922 60.8192 29.1656V52.6572C60.8192 56.2305 57.9225 59.1273 54.3491 59.1273H27.3736C23.8003 59.1273 20.9035 56.2305 20.9035 52.6572V29.1656Z" fill="#263238"/>
<path d="M21.003 29.2651C21.003 25.6918 23.8998 22.795 27.4731 22.795H54.4486C58.022 22.795 60.9188 25.6918 60.9188 29.2651V52.7567C60.9188 56.3301 58.022 59.2268 54.4486 59.2268H27.4731C23.8998 59.2268 21.003 56.3301 21.003 52.7567V29.2651Z" fill="#263238"/>
<path d="M21.1026 29.3647C21.1026 25.7913 23.9993 22.8945 27.5727 22.8945H54.5482C58.1215 22.8945 61.0183 25.7913 61.0183 29.3647V52.8563C61.0183 56.4296 58.1215 59.3264 54.5482 59.3264H27.5727C23.9993 59.3264 21.1026 56.4296 21.1026 52.8563V29.3647Z" fill="#263238"/>
<path d="M21.2021 29.4642C21.2021 25.8909 24.0989 22.9941 27.6722 22.9941H54.6477C58.2211 22.9941 61.1179 25.8909 61.1179 29.4642V52.9558C61.1179 56.5291 58.2211 59.4259 54.6477 59.4259H27.6722C24.0989 59.4259 21.2021 56.5291 21.2021 52.9558V29.4642Z" fill="#263238"/>
<path d="M21.3016 29.5638C21.3016 25.9904 24.1984 23.0936 27.7718 23.0936H54.7473C58.3206 23.0936 61.2174 25.9904 61.2174 29.5638V53.0553C61.2174 56.6287 58.3206 59.5255 54.7473 59.5255H27.7718C24.1984 59.5255 21.3016 56.6287 21.3016 53.0553V29.5638Z" fill="#263238"/>
<path d="M21.4012 29.6633C21.4012 26.0899 24.298 23.1932 27.8713 23.1932H54.8468C58.4202 23.1932 61.3169 26.0899 61.3169 29.6633V53.1549C61.3169 56.7282 58.4202 59.625 54.8468 59.625H27.8713C24.298 59.625 21.4012 56.7282 21.4012 53.1549V29.6633Z" fill="#263238"/>
<path d="M21.5007 29.7628C21.5007 26.1895 24.3975 23.2927 27.9709 23.2927H54.9464C58.5197 23.2927 61.4165 26.1895 61.4165 29.7628V53.2544C61.4165 56.8278 58.5197 59.7245 54.9464 59.7245H27.9709C24.3975 59.7245 21.5007 56.8278 21.5007 53.2544V29.7628Z" fill="#263238"/>
<path d="M21.6003 29.8624C21.6003 26.289 24.497 23.3922 28.0704 23.3922H55.0459C58.6192 23.3922 61.516 26.289 61.516 29.8624V53.354C61.516 56.9273 58.6192 59.8241 55.0459 59.8241H28.0704C24.497 59.8241 21.6003 56.9273 21.6003 53.354V29.8624Z" fill="#263238"/>
<path d="M21.6998 29.9619C21.6998 26.3886 24.5966 23.4918 28.1699 23.4918H55.1454C58.7188 23.4918 61.6156 26.3886 61.6156 29.9619V53.4535C61.6156 57.0269 58.7188 59.9236 55.1454 59.9236H28.1699C24.5966 59.9236 21.6998 57.0269 21.6998 53.4535V29.9619Z" fill="#263238"/>
<path d="M21.7993 30.0615C21.7993 26.4881 24.6961 23.5913 28.2695 23.5913H55.245C58.8183 23.5913 61.7151 26.4881 61.7151 30.0615V53.553C61.7151 57.1264 58.8183 60.0232 55.245 60.0232H28.2695C24.6961 60.0232 21.7993 57.1264 21.7993 53.553V30.0615Z" fill="#263238"/>
<path d="M21.8989 30.161C21.8989 26.5876 24.7957 23.6909 28.369 23.6909H55.3445C58.9179 23.6909 61.8147 26.5876 61.8147 30.161V53.6526C61.8147 57.2259 58.9179 60.1227 55.3445 60.1227H28.369C24.7957 60.1227 21.8989 57.2259 21.8989 53.6526V30.161Z" fill="#263238"/>
<path d="M21.9984 30.2605C21.9984 26.6872 24.8952 23.7904 28.4686 23.7904H55.4441C59.0174 23.7904 61.9142 26.6872 61.9142 30.2605V53.7521C61.9142 57.3255 59.0174 60.2223 55.4441 60.2223H28.4686C24.8952 60.2223 21.9984 57.3255 21.9984 53.7521V30.2605Z" fill="#263238"/>
<path d="M22.098 30.3601C22.098 26.7867 24.9947 23.8899 28.5681 23.8899H55.5436C59.117 23.8899 62.0137 26.7867 62.0137 30.3601V53.8517C62.0137 57.425 59.117 60.3218 55.5436 60.3218H28.5681C24.9947 60.3218 22.098 57.425 22.098 53.8517V30.3601Z" fill="#263238"/>
<path d="M22.1975 30.4596C22.1975 26.8863 25.0943 23.9895 28.6676 23.9895H55.6431C59.2165 23.9895 62.1133 26.8863 62.1133 30.4596V53.9512C62.1133 57.5246 59.2165 60.4213 55.6431 60.4213H28.6676C25.0943 60.4213 22.1975 57.5246 22.1975 53.9512V30.4596Z" fill="#263238"/>
<path d="M22.297 30.5592C22.297 26.9858 25.1938 24.089 28.7672 24.089H55.7427C59.316 24.089 62.2128 26.9858 62.2128 30.5592V54.0507C62.2128 57.6241 59.316 60.5209 55.7427 60.5209H28.7672C25.1938 60.5209 22.297 57.6241 22.297 54.0507V30.5592Z" fill="#263238"/>
<path d="M22.3966 30.6587C22.3966 27.0853 25.2934 24.1886 28.8667 24.1886H55.8422C59.4156 24.1886 62.3124 27.0853 62.3124 30.6587V54.1503C62.3124 57.7236 59.4156 60.6204 55.8422 60.6204H28.8667C25.2934 60.6204 22.3966 57.7236 22.3966 54.1503V30.6587Z" fill="#263238"/>
<path d="M22.4961 30.7582C22.4961 27.1849 25.3929 24.2881 28.9663 24.2881H55.9418C59.5151 24.2881 62.4119 27.1849 62.4119 30.7582V54.2498C62.4119 57.8232 59.5151 60.72 55.9418 60.72H28.9663C25.3929 60.72 22.4961 57.8232 22.4961 54.2498V30.7582Z" fill="#263238"/>
<path d="M22.5957 30.8578C22.5957 27.2844 25.4924 24.3876 29.0658 24.3876H56.0413C59.6147 24.3876 62.5114 27.2844 62.5114 30.8578V54.3494C62.5114 57.9227 59.6147 60.8195 56.0413 60.8195H29.0658C25.4924 60.8195 22.5957 57.9227 22.5957 54.3494V30.8578Z" fill="#263238"/>
<path d="M22.6952 30.9573C22.6952 27.384 25.592 24.4872 29.1653 24.4872H56.1408C59.7142 24.4872 62.611 27.384 62.611 30.9573V54.4489C62.611 58.0223 59.7142 60.919 56.1408 60.919H29.1653C25.592 60.919 22.6952 58.0223 22.6952 54.4489V30.9573Z" fill="#263238"/>
<path d="M22.7947 31.0569C22.7947 27.4835 25.6915 24.5867 29.2649 24.5867H56.2404C59.8137 24.5867 62.7105 27.4835 62.7105 31.0569V54.5484C62.7105 58.1218 59.8137 61.0186 56.2404 61.0186H29.2649C25.6915 61.0186 22.7947 58.1218 22.7947 54.5484V31.0569Z" fill="#263238"/>
<path d="M22.8943 31.1564C22.8943 27.5831 25.7911 24.6863 29.3644 24.6863H56.3399C59.9133 24.6863 62.8101 27.5831 62.8101 31.1564V54.648C62.8101 58.2213 59.9133 61.1181 56.3399 61.1181H29.3644C25.7911 61.1181 22.8943 58.2213 22.8943 54.648V31.1564Z" fill="#263238"/>
<path d="M22.9938 31.2559C22.9938 27.6826 25.8906 24.7858 29.464 24.7858H56.4395C60.0128 24.7858 62.9096 27.6826 62.9096 31.2559V54.7475C62.9096 58.3209 60.0128 61.2177 56.4395 61.2177H29.464C25.8906 61.2177 22.9938 58.3209 22.9938 54.7475V31.2559Z" fill="#263238"/>
<path d="M23.0934 31.3555C23.0934 27.7821 25.9901 24.8854 29.5635 24.8854H56.539C60.1124 24.8854 63.0091 27.7821 63.0091 31.3555V54.8471C63.0091 58.4204 60.1124 61.3172 56.539 61.3172H29.5635C25.9901 61.3172 23.0934 58.4204 23.0934 54.8471V31.3555Z" fill="#263238"/>
<path d="M23.1929 31.455C23.1929 27.8817 26.0897 24.9849 29.663 24.9849H56.6385C60.2119 24.9849 63.1087 27.8817 63.1087 31.455V54.9466C63.1087 58.52 60.2119 61.4167 56.6385 61.4167H29.663C26.0897 61.4167 23.1929 58.52 23.1929 54.9466V31.455Z" fill="#263238"/>
<path d="M23.2924 31.5546C23.2924 27.9812 26.1892 25.0844 29.7626 25.0844H56.7381C60.3114 25.0844 63.2082 27.9812 63.2082 31.5546V55.0461C63.2082 58.6195 60.3114 61.5163 56.7381 61.5163H29.7626C26.1892 61.5163 23.2924 58.6195 23.2924 55.0461V31.5546Z" fill="#263238"/>
<path d="M23.392 31.6541C23.392 28.0808 26.2888 25.184 29.8621 25.184H56.8376C60.411 25.184 63.3078 28.0808 63.3078 31.6541V55.1457C63.3078 58.719 60.411 61.6158 56.8376 61.6158H29.8621C26.2888 61.6158 23.392 58.719 23.392 55.1457V31.6541Z" fill="#263238"/>
<path d="M23.4915 31.7537C23.4915 28.1803 26.3883 25.2835 29.9617 25.2835H56.9372C60.5105 25.2835 63.4073 28.1803 63.4073 31.7537V55.2452C63.4073 58.8186 60.5105 61.7154 56.9372 61.7154H29.9617C26.3883 61.7154 23.4915 58.8186 23.4915 55.2452V31.7537Z" fill="#263238"/>
<path d="M23.5911 31.8532C23.5911 28.2798 26.4878 25.3831 30.0612 25.3831H57.0367C60.6101 25.3831 63.5068 28.2798 63.5068 31.8532V55.3448C63.5068 58.9181 60.6101 61.8149 57.0367 61.8149H30.0612C26.4878 61.8149 23.5911 58.9181 23.5911 55.3448V31.8532Z" fill="#263238"/>
<path d="M23.6906 31.9527C23.6906 28.3794 26.5874 25.4826 30.1607 25.4826H57.1362C60.7096 25.4826 63.6064 28.3794 63.6064 31.9527V55.4443C63.6064 59.0177 60.7096 61.9144 57.1362 61.9144H30.1607C26.5874 61.9144 23.6906 59.0177 23.6906 55.4443V31.9527Z" fill="#263238"/>
<path d="M23.7901 32.0523C23.7901 28.4789 26.6869 25.5821 30.2603 25.5821H57.2358C60.8091 25.5821 63.7059 28.4789 63.7059 32.0523V55.5438C63.7059 59.1172 60.8091 62.014 57.2358 62.014H30.2603C26.6869 62.014 23.7901 59.1172 23.7901 55.5438V32.0523Z" fill="#263238"/>
<path d="M23.8897 32.1518C23.8897 28.5785 26.7865 25.6817 30.3598 25.6817H57.3353C60.9087 25.6817 63.8055 28.5785 63.8055 32.1518V55.6434C63.8055 59.2167 60.9087 62.1135 57.3353 62.1135H30.3598C26.7865 62.1135 23.8897 59.2167 23.8897 55.6434V32.1518Z" fill="#263238"/>
<path d="M23.9892 32.2514C23.9892 28.678 26.886 25.7812 30.4594 25.7812H57.4349C61.0082 25.7812 63.905 28.678 63.905 32.2514V55.7429C63.905 59.3163 61.0082 62.2131 57.4349 62.2131H30.4594C26.886 62.2131 23.9892 59.3163 23.9892 55.7429V32.2514Z" fill="#263238"/>
<path d="M24.0888 32.3509C24.0888 28.7775 26.9855 25.8808 30.5589 25.8808H57.5344C61.1078 25.8808 64.0045 28.7775 64.0045 32.3509V55.8425C64.0045 59.4158 61.1078 62.3126 57.5344 62.3126H30.5589C26.9855 62.3126 24.0888 59.4158 24.0888 55.8425V32.3509Z" fill="#263238"/>
<path d="M24.1883 32.4504C24.1883 28.8771 27.0851 25.9803 30.6584 25.9803H57.6339C61.2073 25.9803 64.1041 28.8771 64.1041 32.4504V55.942C64.1041 59.5154 61.2073 62.4121 57.6339 62.4121H30.6584C27.0851 62.4121 24.1883 59.5154 24.1883 55.942V32.4504Z" fill="#263238"/>
<path d="M24.2878 32.55C24.2878 28.9766 27.1846 26.0798 30.758 26.0798H57.7335C61.3068 26.0798 64.2036 28.9766 64.2036 32.55V56.0415C64.2036 59.6149 61.3068 62.5117 57.7335 62.5117H30.758C27.1846 62.5117 24.2878 59.6149 24.2878 56.0415V32.55Z" fill="#263238"/>
<path d="M24.3874 32.6495C24.3874 29.0762 27.2842 26.1794 30.8575 26.1794H57.833C61.4064 26.1794 64.3032 29.0762 64.3032 32.6495V56.1411C64.3032 59.7144 61.4064 62.6112 57.833 62.6112H30.8575C27.2842 62.6112 24.3874 59.7144 24.3874 56.1411V32.6495Z" fill="#263238"/>
<path d="M24.4869 32.7491C24.4869 29.1757 27.3837 26.2789 30.9571 26.2789H57.9326C61.5059 26.2789 64.4027 29.1757 64.4027 32.7491V56.2406C64.4027 59.814 61.5059 62.7108 57.9326 62.7108H30.9571C27.3837 62.7108 24.4869 59.814 24.4869 56.2406V32.7491Z" fill="#263238"/>
<path d="M24.5865 32.8486C24.5865 29.2752 27.4833 26.3785 31.0566 26.3785H58.0321C61.6055 26.3785 64.5022 29.2752 64.5022 32.8486V56.3402C64.5022 59.9135 61.6055 62.8103 58.0321 62.8103H31.0566C27.4833 62.8103 24.5865 59.9135 24.5865 56.3402V32.8486Z" fill="#263238"/>
<path d="M24.686 32.9481C24.686 29.3748 27.5828 26.478 31.1562 26.478H58.1316C61.705 26.478 64.6018 29.3748 64.6018 32.9481V56.4397C64.6018 60.0131 61.705 62.9098 58.1316 62.9098H31.1562C27.5828 62.9098 24.686 60.0131 24.686 56.4397V32.9481Z" fill="#263238"/>
<path d="M24.7856 33.0477C24.7856 29.4743 27.6823 26.5775 31.2557 26.5775H58.2312C61.8045 26.5775 64.7013 29.4743 64.7013 33.0477V56.5392C64.7013 60.1126 61.8045 63.0094 58.2312 63.0094H31.2557C27.6823 63.0094 24.7856 60.1126 24.7856 56.5392V33.0477Z" fill="#263238"/>
<path d="M24.8851 33.1472C24.8851 29.5739 27.7819 26.6771 31.3552 26.6771H58.3307C61.9041 26.6771 64.8009 29.5739 64.8009 33.1472V56.6388C64.8009 60.2122 61.9041 63.1089 58.3307 63.1089H31.3552C27.7819 63.1089 24.8851 60.2122 24.8851 56.6388V33.1472Z" fill="#263238"/>
<path d="M24.9846 33.2468C24.9846 29.6734 27.8814 26.7766 31.4548 26.7766H58.4303C62.0036 26.7766 64.9004 29.6734 64.9004 33.2468V56.7383C64.9004 60.3117 62.0036 63.2085 58.4303 63.2085H31.4548C27.8814 63.2085 24.9846 60.3117 24.9846 56.7383V33.2468Z" fill="#263238"/>
<path d="M25.0842 33.3463C25.0842 29.7729 27.981 26.8762 31.5543 26.8762H58.5298C62.1032 26.8762 65 29.7729 65 33.3463V56.8379C65 60.4112 62.1032 63.308 58.5298 63.308H31.5543C27.981 63.308 25.0842 60.4112 25.0842 56.8379V33.3463Z" fill="#263238"/>
<path d="M25.1837 33.4458C25.1837 29.8725 28.0805 26.9757 31.6539 26.9757H58.6294C62.2027 26.9757 65.0995 29.8725 65.0995 33.4458V56.9374C65.0995 60.5108 62.2027 63.4076 58.6294 63.4076H31.6539C28.0805 63.4076 25.1837 60.5108 25.1837 56.9374V33.4458Z" fill="#263238"/>
<path d="M25.2833 33.5454C25.2833 29.972 28.18 27.0752 31.7534 27.0752H58.7289C62.3022 27.0752 65.199 29.972 65.199 33.5454V57.037C65.199 60.6103 62.3022 63.5071 58.7289 63.5071H31.7534C28.18 63.5071 25.2833 60.6103 25.2833 57.037V33.5454Z" fill="#263238"/>
<path d="M25.3828 33.6449C25.3828 30.0716 28.2796 27.1748 31.8529 27.1748H58.8284C62.4018 27.1748 65.2986 30.0716 65.2986 33.6449V57.1365C65.2986 60.7099 62.4018 63.6066 58.8284 63.6066H31.8529C28.2796 63.6066 25.3828 60.7099 25.3828 57.1365V33.6449Z" fill="#263238"/>
<path d="M25.4823 33.7445C25.4823 30.1711 28.3791 27.2743 31.9525 27.2743H58.928C62.5013 27.2743 65.3981 30.1711 65.3981 33.7445V57.236C65.3981 60.8094 62.5013 63.7062 58.928 63.7062H31.9525C28.3791 63.7062 25.4823 60.8094 25.4823 57.236V33.7445Z" fill="#263238"/>
<path d="M25.5819 33.844C25.5819 30.2706 28.4787 27.3739 32.052 27.3739H59.0275C62.6009 27.3739 65.4977 30.2706 65.4977 33.844V57.3356C65.4977 60.9089 62.6009 63.8057 59.0275 63.8057H32.052C28.4787 63.8057 25.5819 60.9089 25.5819 57.3356V33.844Z" fill="#263238"/>
<path d="M25.6814 33.9435C25.6814 30.3702 28.5782 27.4734 32.1516 27.4734H59.1271C62.7004 27.4734 65.5972 30.3702 65.5972 33.9435V57.4351C65.5972 61.0085 62.7004 63.9053 59.1271 63.9053H32.1516C28.5782 63.9053 25.6814 61.0085 25.6814 57.4351V33.9435Z" fill="#263238"/>
<path d="M25.781 34.0431C25.781 30.4697 28.6777 27.5729 32.2511 27.5729H59.2266C62.8 27.5729 65.6967 30.4697 65.6967 34.0431V57.5347C65.6967 61.108 62.8 64.0048 59.2266 64.0048H32.2511C28.6777 64.0048 25.781 61.108 25.781 57.5347V34.0431Z" fill="#263238"/>
<path d="M25.8805 34.1426C25.8805 30.5693 28.7773 27.6725 32.3506 27.6725H59.3261C62.8995 27.6725 65.7963 30.5693 65.7963 34.1426V57.6342C65.7963 61.2076 62.8995 64.1043 59.3261 64.1043H32.3506C28.7773 64.1043 25.8805 61.2076 25.8805 57.6342V34.1426Z" fill="#263238"/>
<path d="M25.98 34.2422C25.98 30.6688 28.8768 27.772 32.4502 27.772H59.4257C62.999 27.772 65.8958 30.6688 65.8958 34.2422V57.7337C65.8958 61.3071 62.999 64.2039 59.4257 64.2039H32.4502C28.8768 64.2039 25.98 61.3071 25.98 57.7337V34.2422Z" fill="#263238"/>
<path d="M26.0796 34.3417C26.0796 30.7683 28.9764 27.8716 32.5497 27.8716H59.5252C63.0986 27.8716 65.9954 30.7683 65.9954 34.3417V57.8333C65.9954 61.4066 63.0986 64.3034 59.5252 64.3034H32.5497C28.9764 64.3034 26.0796 61.4066 26.0796 57.8333V34.3417Z" fill="#263238"/>
<path d="M26.1791 34.4412C26.1791 30.8679 29.0759 27.9711 32.6493 27.9711H59.6248C63.1981 27.9711 66.0949 30.8679 66.0949 34.4412V57.9328C66.0949 61.5062 63.1981 64.403 59.6248 64.403H32.6493C29.0759 64.403 26.1791 61.5062 26.1791 57.9328V34.4412Z" fill="#263238"/>
<path d="M26.2787 34.5408C26.2787 30.9674 29.1754 28.0707 32.7488 28.0707H59.7243C63.2977 28.0707 66.1944 30.9674 66.1944 34.5408V58.0324C66.1944 61.6057 63.2977 64.5025 59.7243 64.5025H32.7488C29.1754 64.5025 26.2787 61.6057 26.2787 58.0324V34.5408Z" fill="#263238"/>
<path d="M26.3782 34.6403C26.3782 31.067 29.275 28.1702 32.8483 28.1702H59.8238C63.3972 28.1702 66.294 31.067 66.294 34.6403V58.1319C66.294 61.7053 63.3972 64.602 59.8238 64.602H32.8483C29.275 64.602 26.3782 61.7053 26.3782 58.1319V34.6403Z" fill="#263238"/>
<path d="M26.4777 34.7399C26.4777 31.1665 29.3745 28.2697 32.9479 28.2697H59.9234C63.4967 28.2697 66.3935 31.1665 66.3935 34.7399V58.2314C66.3935 61.8048 63.4967 64.7016 59.9234 64.7016H32.9479C29.3745 64.7016 26.4777 61.8048 26.4777 58.2314V34.7399Z" fill="#263238"/>
<path d="M26.5773 34.8394C26.5773 31.2661 29.4741 28.3693 33.0474 28.3693H60.0229C63.5963 28.3693 66.4931 31.2661 66.4931 34.8394V58.331C66.4931 61.9043 63.5963 64.8011 60.0229 64.8011H33.0474C29.4741 64.8011 26.5773 61.9043 26.5773 58.331V34.8394Z" fill="#263238"/>
<path d="M26.6768 34.9389C26.6768 31.3656 29.5736 28.4688 33.147 28.4688H60.1225C63.6958 28.4688 66.5926 31.3656 66.5926 34.9389V58.4305C66.5926 62.0039 63.6958 64.9007 60.1225 64.9007H33.147C29.5736 64.9007 26.6768 62.0039 26.6768 58.4305V34.9389Z" fill="#263238"/>
<path d="M26.7764 35.0385C26.7764 31.4651 29.6731 28.5684 33.2465 28.5684H60.222C63.7954 28.5684 66.6921 31.4651 66.6921 35.0385V58.5301C66.6921 62.1034 63.7954 65.0002 60.222 65.0002H33.2465C29.6731 65.0002 26.7764 62.1034 26.7764 58.5301V35.0385Z" fill="#263238"/>
<path d="M26.8759 35.138C26.8759 31.5647 29.7727 28.6679 33.346 28.6679H60.3215C63.8949 28.6679 66.7917 31.5647 66.7917 35.138V58.6296C66.7917 62.203 63.8949 65.0997 60.3215 65.0997H33.346C29.7727 65.0997 26.8759 62.203 26.8759 58.6296V35.138Z" fill="#263238"/>
<path d="M26.9754 35.2376C26.9754 31.6642 29.8722 28.7674 33.4456 28.7674H60.4211C63.9944 28.7674 66.8912 31.6642 66.8912 35.2376V58.7291C66.8912 62.3025 63.9944 65.1993 60.4211 65.1993H33.4456C29.8722 65.1993 26.9754 62.3025 26.9754 58.7291V35.2376Z" fill="#263238"/>
<path d="M27.075 35.3371C27.075 31.7638 29.9718 28.867 33.5451 28.867H60.5206C64.094 28.867 66.9908 31.7638 66.9908 35.3371V58.8287C66.9908 62.402 64.094 65.2988 60.5206 65.2988H33.5451C29.9718 65.2988 27.075 62.402 27.075 58.8287V35.3371Z" fill="#263238"/>
<path d="M27.1745 35.4367C27.1745 31.8633 30.0713 28.9665 33.6447 28.9665H60.6202C64.1935 28.9665 67.0903 31.8633 67.0903 35.4367V58.9282C67.0903 62.5016 64.1935 65.3984 60.6202 65.3984H33.6447C30.0713 65.3984 27.1745 62.5016 27.1745 58.9282V35.4367Z" fill="#263238"/>
<path d="M27.2741 35.5362C27.2741 31.9628 30.1708 29.0661 33.7442 29.0661H60.7197C64.2931 29.0661 67.1898 31.9628 67.1898 35.5362V59.0278C67.1898 62.6011 64.2931 65.4979 60.7197 65.4979H33.7442C30.1708 65.4979 27.2741 62.6011 27.2741 59.0278V35.5362Z" fill="#263238"/>
<path d="M27.3736 35.6357C27.3736 32.0624 30.2704 29.1656 33.8437 29.1656H60.8192C64.3926 29.1656 67.2894 32.0624 67.2894 35.6357V59.1273C67.2894 62.7007 64.3926 65.5974 60.8192 65.5974H33.8437C30.2704 65.5974 27.3736 62.7007 27.3736 59.1273V35.6357Z" fill="#263238"/>
<path d="M27.4731 35.7353C27.4731 32.1619 30.3699 29.2651 33.9433 29.2651H60.9188C64.4921 29.2651 67.3889 32.1619 67.3889 35.7353V59.2268C67.3889 62.8002 64.4921 65.697 60.9188 65.697H33.9433C30.3699 65.697 27.4731 62.8002 27.4731 59.2268V35.7353Z" fill="#263238"/>
<path d="M27.5727 35.8348C27.5727 32.2615 30.4695 29.3647 34.0428 29.3647H61.0183C64.5917 29.3647 67.4885 32.2615 67.4885 35.8348V59.3264C67.4885 62.8997 64.5917 65.7965 61.0183 65.7965H34.0428C30.4695 65.7965 27.5727 62.8997 27.5727 59.3264V35.8348Z" fill="#263238"/>
<path d="M27.6722 35.9344C27.6722 32.361 30.569 29.4642 34.1424 29.4642H61.1179C64.6912 29.4642 67.588 32.361 67.588 35.9344V59.4259C67.588 62.9993 64.6912 65.8961 61.1179 65.8961H34.1424C30.569 65.8961 27.6722 62.9993 27.6722 59.4259V35.9344Z" fill="#263238"/>
<path d="M27.7718 36.0339C27.7718 32.4605 30.6686 29.5638 34.2419 29.5638H61.2174C64.7908 29.5638 67.6875 32.4605 67.6875 36.0339V59.5255C67.6875 63.0988 64.7908 65.9956 61.2174 65.9956H34.2419C30.6686 65.9956 27.7718 63.0988 27.7718 59.5255V36.0339Z" fill="#263238"/>
<path d="M27.8713 36.1334C27.8713 32.5601 30.7681 29.6633 34.3414 29.6633H61.3169C64.8903 29.6633 67.7871 32.5601 67.7871 36.1334V59.625C67.7871 63.1984 64.8903 66.0951 61.3169 66.0951H34.3414C30.7681 66.0951 27.8713 63.1984 27.8713 59.625V36.1334Z" fill="#263238"/>
<path d="M27.9709 36.233C27.9709 32.6596 30.8676 29.7628 34.441 29.7628H61.4165C64.9898 29.7628 67.8866 32.6596 67.8866 36.233V59.7245C67.8866 63.2979 64.9898 66.1947 61.4165 66.1947H34.441C30.8676 66.1947 27.9709 63.2979 27.9709 59.7245V36.233Z" fill="#263238"/>
<path d="M28.0704 36.3325C28.0704 32.7592 30.9672 29.8624 34.5405 29.8624H61.516C65.0894 29.8624 67.9862 32.7592 67.9862 36.3325V59.8241C67.9862 63.3974 65.0894 66.2942 61.516 66.2942H34.5405C30.9672 66.2942 28.0704 63.3974 28.0704 59.8241V36.3325Z" fill="#263238"/>
<path d="M28.1699 36.4321C28.1699 32.8587 31.0667 29.9619 34.6401 29.9619H61.6156C65.1889 29.9619 68.0857 32.8587 68.0857 36.4321V59.9236C68.0857 63.497 65.1889 66.3938 61.6156 66.3938H34.6401C31.0667 66.3938 28.1699 63.497 28.1699 59.9236V36.4321Z" fill="#263238"/>
<path d="M28.2695 36.5316C28.2695 32.9582 31.1663 30.0615 34.7396 30.0615H61.7151C65.2885 30.0615 68.1852 32.9582 68.1852 36.5316V60.0232C68.1852 63.5965 65.2885 66.4933 61.7151 66.4933H34.7396C31.1663 66.4933 28.2695 63.5965 28.2695 60.0232V36.5316Z" fill="#263238"/>
</g>
</g>
<path d="M12.5421 20.8039C12.5421 17.2305 15.4389 14.3337 19.0122 14.3337H45.9877C49.5611 14.3337 52.4579 17.2305 52.4579 20.8039V44.2955C52.4579 47.8688 49.5611 50.7656 45.9877 50.7656H19.0122C15.4389 50.7656 12.5421 47.8688 12.5421 44.2955V20.8039Z" fill="#00B065"/>
<path d="M12.5421 20.8039C12.5421 17.2305 15.4389 14.3337 19.0122 14.3337H45.9877C49.5611 14.3337 52.4579 17.2305 52.4579 20.8039V24.238H12.5421V20.8039Z" fill="#F3F5F6"/>
<mask id="mask1" mask-type="alpha" maskUnits="userSpaceOnUse" x="12" y="14" width="41" height="37">
<path d="M12.5421 20.8039C12.5421 17.2305 15.4389 14.3337 19.0122 14.3337H45.9877C49.5611 14.3337 52.4579 17.2305 52.4579 20.8039V44.2955C52.4579 47.8688 49.5611 50.7656 45.9877 50.7656H19.0122C15.4389 50.7656 12.5421 47.8688 12.5421 44.2955V20.8039Z" fill="#EF788B"/>
</mask>
<g mask="url(#mask1)">
<g style="mix-blend-mode:soft-light" opacity="0.25">
<path d="M12.5421 24.2881H52.4579V26.2789H12.5421V24.2881Z" fill="black"/>
<path d="M50.0689 26.2789H52.4579V50.7659H50.0689V26.2789Z" fill="black"/>
</g>
</g>
<circle cx="18.2657" cy="19.2612" r="1.44334" fill="#00B065"/>
<circle cx="22.4464" cy="19.2612" r="1.44334" fill="#FFAB00"/>
<circle cx="26.6271" cy="19.2612" r="1.44334" fill="#E74C3C"/>
<path d="M27.0909 30.4969L19.6095 36.7989V38.4358L27.0616 44.7378V42.4189L21.4432 37.6173L27.0909 32.8158V30.4969Z" fill="#F3F5F6"/>
<path d="M33.7364 29.0782L32.6949 28.3689L29.1867 46.1291L30.2283 46.7839L33.7364 29.0782Z" fill="#F3F5F6"/>
<path d="M37.9384 32.8158L43.5568 37.6173L37.9384 42.4189V44.7378L45.3905 38.4358V36.7989L37.9384 30.4969V32.8158Z" fill="#F3F5F6"/>
</svg>
