<svg width="120" height="120" viewBox="0 0 120 120" fill="none" xmlns="http://www.w3.org/2000/svg">
<path d="M113.698 35.2421C113.698 33.237 113.271 31.4291 112.383 29.917C111.529 28.405 110.247 27.1559 108.538 26.1698C94.3375 17.985 80.1044 9.80015 65.9043 1.61534C62.0584 -0.586994 58.3769 -0.521251 54.5639 1.71396C48.9101 5.0339 20.5756 21.272 12.1607 26.1698C8.6764 28.1749 7 31.2647 7 35.2749C7 51.7432 7 68.2443 7 84.7125C7 86.6847 7.42732 88.4269 8.24909 89.9389C9.10372 91.4839 10.4186 92.7987 12.1607 93.8177C20.6085 98.7154 48.9101 114.921 54.5639 118.273C58.3769 120.509 62.0913 120.607 65.9043 118.372C80.1044 110.154 94.3375 102.002 108.538 93.8177C110.313 92.7987 111.595 91.5167 112.449 89.9389C113.271 88.4269 113.698 86.6847 113.698 84.7125C113.698 84.6796 113.698 51.7103 113.698 35.2421Z" fill="#9A4993"/>
<path d="M60.4806 59.7964L8.18335 89.906C9.03799 91.4509 10.3528 92.7657 12.095 93.7847C20.5427 98.6824 48.8444 114.888 54.4982 118.24C58.3112 120.476 62.0256 120.574 65.8386 118.339C80.0387 110.121 94.2717 101.969 108.472 93.7847C110.247 92.7657 111.529 91.4837 112.383 89.906L60.4806 59.7964Z" fill="#6A1577"/>
<path d="M44.9985 68.7043C48.0555 74.0294 53.775 77.6123 60.3163 77.6123C66.9233 77.6123 72.6757 73.9965 75.6998 68.6057L60.4806 59.7964L44.9985 68.7043Z" fill="#6A1577"/>
<path d="M113.698 35.242C113.698 33.2369 113.271 31.429 112.383 29.917L60.4807 59.7965L112.449 89.906C113.271 88.394 113.698 86.6518 113.698 84.6796C113.698 84.6796 113.698 51.7103 113.698 35.242Z" fill="#813084"/>
<path d="M75.6998 68.6057C72.6757 73.9637 66.9233 77.6123 60.3163 77.6123C53.7422 77.6123 48.0227 74.0294 44.9986 68.7044C43.5194 66.1076 42.6647 63.1492 42.6647 59.9607C42.6647 50.1981 50.5537 42.3092 60.3163 42.3092C66.8247 42.3092 72.5113 45.8592 75.5683 51.1185L90.9847 42.2434C84.8378 31.6591 73.3988 24.5261 60.2834 24.5261C40.6925 24.5261 24.8488 40.4027 24.8488 59.9607C24.8488 66.3705 26.5581 72.4187 29.5493 77.6123C35.6633 88.2296 47.168 95.3954 60.3163 95.3954C73.4975 95.3954 85.0022 88.1967 91.1162 77.5137L75.6998 68.6057Z" fill="white"/>
<path d="M95.1921 51.5786H91.6749V68.5728H95.1921V51.5786Z" fill="white"/>
<path d="M102.982 51.5786H99.4653V68.5728H102.982V51.5786Z" fill="white"/>
<path d="M105.842 54.4385H88.8481V57.9556H105.842V54.4385Z" fill="white"/>
<path d="M105.842 62.1958H88.8481V65.713H105.842V62.1958Z" fill="white"/>
</svg>
