<svg width="25" height="25" viewBox="0 0 25 25" fill="none" xmlns="http://www.w3.org/2000/svg">
<path d="M8.47656 18.8086C8.47656 18.9232 8.40495 18.9805 8.26172 18.9805C8.08984 19.0091 8.00391 18.9518 8.00391 18.8086C8.00391 18.7227 8.07552 18.6797 8.21875 18.6797C8.39062 18.651 8.47656 18.694 8.47656 18.8086ZM7.31641 18.8516C7.14453 18.8229 7.07292 18.7513 7.10156 18.6367C7.15885 18.5221 7.25911 18.4935 7.40234 18.5508C7.54557 18.5794 7.60286 18.651 7.57422 18.7656C7.54557 18.8802 7.45964 18.9089 7.31641 18.8516ZM9.03516 18.5508C9.17839 18.5508 9.25 18.5938 9.25 18.6797C9.27865 18.7656 9.22135 18.8372 9.07812 18.8945C8.9349 18.9232 8.84896 18.8802 8.82031 18.7656C8.82031 18.651 8.89193 18.5794 9.03516 18.5508ZM11.8711 2.09375C13.819 2.09375 15.6237 2.55208 17.2852 3.46875C18.9466 4.38542 20.25 5.64583 21.1953 7.25C22.1693 8.85417 22.6562 10.6302 22.6562 12.5781C22.6562 14.9557 21.9831 17.0898 20.6367 18.9805C19.319 20.8424 17.5859 22.1315 15.4375 22.8477C15.2083 22.9049 15.0221 22.8763 14.8789 22.7617C14.7643 22.6471 14.707 22.5039 14.707 22.332C14.707 22.3034 14.707 21.8451 14.707 20.957C14.707 20.0404 14.707 19.2956 14.707 18.7227C14.707 17.806 14.4635 17.1471 13.9766 16.7461C14.6068 16.6602 15.0938 16.5885 15.4375 16.5312C15.7812 16.474 16.2109 16.3451 16.7266 16.1445C17.2422 15.944 17.6289 15.6862 17.8867 15.3711C18.1732 15.056 18.4167 14.612 18.6172 14.0391C18.8177 13.4661 18.918 12.7786 18.918 11.9766C18.918 11.4323 18.832 10.9883 18.6602 10.6445C18.4883 10.3008 18.2018 9.91406 17.8008 9.48438C18.1445 8.59635 18.1159 7.6224 17.7148 6.5625C17.4284 6.47656 17.0417 6.53385 16.5547 6.73438C16.0677 6.90625 15.638 7.10677 15.2656 7.33594L14.75 7.72266C13.862 7.46484 12.9453 7.33594 12 7.33594C11.0833 7.33594 10.1953 7.46484 9.33594 7.72266C9.19271 7.60807 8.99219 7.47917 8.73438 7.33594C8.47656 7.16406 8.07552 6.97786 7.53125 6.77734C7.01562 6.54818 6.62891 6.47656 6.37109 6.5625C5.94141 7.6224 5.89844 8.59635 6.24219 9.48438C5.58333 10.2005 5.25391 11.0312 5.25391 11.9766C5.25391 12.7786 5.35417 13.4661 5.55469 14.0391C5.75521 14.612 5.98438 15.056 6.24219 15.3711C6.5 15.6862 6.8724 15.944 7.35938 16.1445C7.84635 16.3451 8.26172 16.4883 8.60547 16.5742C8.97786 16.6315 9.46484 16.6888 10.0664 16.7461C9.69401 17.0898 9.46484 17.5768 9.37891 18.207C9.09245 18.3216 8.79167 18.4076 8.47656 18.4648C8.1901 18.5221 7.81771 18.4648 7.35938 18.293C6.90104 18.1211 6.52865 17.7917 6.24219 17.3047C6.07031 16.9896 5.84115 16.7461 5.55469 16.5742C5.29688 16.3737 5.06771 16.2591 4.86719 16.2305L4.60938 16.1875C3.97917 16.1875 3.95052 16.4023 4.52344 16.832C4.72396 16.9466 4.92448 17.1328 5.125 17.3906C5.32552 17.6484 5.46875 17.8776 5.55469 18.0781L5.72656 18.4219C5.84115 18.7656 6.04167 19.0521 6.32812 19.2812C6.61458 19.5104 6.92969 19.6536 7.27344 19.7109C7.61719 19.7682 7.94661 19.7969 8.26172 19.7969C8.57682 19.7969 8.83464 19.7826 9.03516 19.7539L9.33594 19.7109C9.33594 20.0547 9.33594 20.5703 9.33594 21.2578C9.36458 21.9453 9.37891 22.3034 9.37891 22.332C9.37891 22.5039 9.30729 22.6471 9.16406 22.7617C9.04948 22.8763 8.8776 22.9049 8.64844 22.8477C6.47135 22.1315 4.70964 20.8424 3.36328 18.9805C2.01693 17.0898 1.34375 14.9557 1.34375 12.5781C1.34375 9.59896 2.34635 7.10677 4.35156 5.10156C6.38542 3.09635 8.89193 2.09375 11.8711 2.09375ZM5.51172 16.918C5.56901 16.8607 5.64062 16.875 5.72656 16.9609C5.8125 17.0469 5.82682 17.1185 5.76953 17.1758C5.71224 17.2331 5.64062 17.2188 5.55469 17.1328C5.46875 17.0469 5.45443 16.9753 5.51172 16.918ZM5.03906 16.5742C5.09635 16.5169 5.16797 16.5026 5.25391 16.5312C5.33984 16.5885 5.36849 16.6458 5.33984 16.7031C5.3112 16.7891 5.25391 16.8034 5.16797 16.7461C5.05339 16.6888 5.01042 16.6315 5.03906 16.5742ZM6.45703 18.0781C6.51432 17.9922 6.60026 18.0065 6.71484 18.1211C6.82943 18.2357 6.85807 18.3359 6.80078 18.4219C6.71484 18.5078 6.61458 18.4935 6.5 18.3789C6.38542 18.2643 6.37109 18.1641 6.45703 18.0781ZM5.94141 17.4766C6.02734 17.3906 6.11328 17.4193 6.19922 17.5625C6.28516 17.6771 6.28516 17.763 6.19922 17.8203C6.11328 17.8776 6.02734 17.849 5.94141 17.7344C5.88411 17.5911 5.88411 17.5052 5.94141 17.4766Z" fill="white"/>
</svg>
