<svg width="120" height="120" viewBox="0 0 120 120" fill="none" xmlns="http://www.w3.org/2000/svg">
<path d="M0 0H120V120H0V0Z" fill="#F7DF1E"/>
<path d="M31.5523 100.281L40.7356 94.7232C42.5072 97.8643 44.1188 100.522 47.9845 100.522C51.69 100.522 54.0262 99.0725 54.0262 93.4344V55.0916H65.3032V93.5938C65.3032 105.274 58.4567 110.59 48.4679 110.59C39.4468 110.59 34.2102 105.918 31.5521 100.28" fill="black"/>
<path d="M71.4286 99.0723L80.6107 93.7559C83.0278 97.7034 86.1694 100.603 91.7271 100.603C96.3996 100.603 99.3793 98.2668 99.3793 95.0447C99.3793 91.1782 96.3185 89.8087 91.1631 87.554L88.3446 86.3449C80.2084 82.8818 74.8113 78.5321 74.8113 69.3491C74.8113 60.8912 81.2553 54.4468 91.3246 54.4468C98.4937 54.4468 103.649 56.9441 107.354 63.4689L98.5737 69.1072C96.6404 65.6437 94.5467 64.2746 91.3248 64.2746C88.0221 64.2746 85.9276 66.3689 85.9276 69.1072C85.9276 72.4904 88.0221 73.8601 92.8547 75.9546L95.6737 77.1628C105.259 81.2712 110.657 85.4593 110.657 94.8835C110.657 105.034 102.682 110.591 91.969 110.591C81.4974 110.591 74.7309 105.597 71.4288 99.0723" fill="black"/>
</svg>
