<svg width="25" height="25" viewBox="0 0 25 25" fill="none" xmlns="http://www.w3.org/2000/svg">
<path d="M18.1875 23.3203L18.2734 23.6211C18.2448 23.707 18.1589 23.75 18.0156 23.75H15.1367C14.9648 23.75 14.8073 23.6784 14.6641 23.5352L9.9375 17.4766L8.60547 18.7656V23.4062C8.60547 23.6354 8.49089 23.75 8.26172 23.75H6.07031C5.84115 23.75 5.72656 23.6354 5.72656 23.4062V2.09375C5.72656 1.86458 5.84115 1.75 6.07031 1.75H8.26172C8.49089 1.75 8.60547 1.86458 8.60547 2.09375V15.2422L14.2773 9.48438C14.4206 9.3125 14.5781 9.22656 14.75 9.22656H17.7148C17.8581 9.22656 17.944 9.29818 17.9727 9.44141C18.0299 9.55599 18.0156 9.64193 17.9297 9.69922L11.9141 15.5L18.1875 23.3203Z" fill="white"/>
</svg>
