<svg width="15" height="15" viewBox="0 0 15 15" fill="none" xmlns="http://www.w3.org/2000/svg">
<path d="M8.96875 5.80859C9.77083 6.62891 10.1719 7.61328 10.1719 8.76172C10.1719 9.91016 9.77083 10.8854 8.96875 11.6875L7.10938 13.5469C6.30729 14.349 5.33203 14.75 4.18359 14.75C3.03516 14.75 2.05078 14.3398 1.23047 13.5195C0.428385 12.7174 0.0273438 11.7422 0.0273438 10.5938C0.0273438 9.44531 0.428385 8.47005 1.23047 7.66797L2.26953 6.62891C2.39714 6.5013 2.54297 6.47396 2.70703 6.54688C2.88932 6.61979 2.98958 6.7474 3.00781 6.92969C3.02604 7.42188 3.11719 7.90495 3.28125 8.37891C3.33594 8.54297 3.29948 8.6888 3.17188 8.81641L2.81641 9.19922C2.43359 9.58203 2.23307 10.0469 2.21484 10.5938C2.21484 11.1224 2.40625 11.5781 2.78906 11.9609C3.17188 12.362 3.63672 12.5625 4.18359 12.5625C4.73047 12.5625 5.19531 12.3711 5.57812 11.9883L7.41016 10.1562C7.79297 9.77344 7.98438 9.30859 7.98438 8.76172C7.98438 8.21484 7.79297 7.75 7.41016 7.36719C7.31901 7.27604 7.22786 7.19401 7.13672 7.12109C7.00911 7.04818 6.94531 6.9388 6.94531 6.79297C6.92708 6.46484 7.02734 6.19141 7.24609 5.97266L7.84766 5.39844C8.01172 5.21615 8.19401 5.19792 8.39453 5.34375C8.59505 5.48958 8.78646 5.64453 8.96875 5.80859ZM9.87109 0.75C11.0195 0.75 11.9948 1.16016 12.7969 1.98047C13.6172 2.78255 14.0273 3.75781 14.0273 4.90625C14.0273 6.05469 13.6263 7.02995 12.8242 7.83203L11.7852 8.87109C11.6576 8.9987 11.5026 9.02604 11.3203 8.95312C11.1562 8.88021 11.0651 8.7526 11.0469 8.57031C11.0286 8.07812 10.9375 7.59505 10.7734 7.12109C10.7188 6.95703 10.7552 6.8112 10.8828 6.68359L11.2383 6.30078C11.6211 5.91797 11.8125 5.46224 11.8125 4.93359C11.8307 4.38672 11.6484 3.92188 11.2656 3.53906C10.8828 3.13802 10.418 2.9375 9.87109 2.9375C9.32422 2.9375 8.85938 3.12891 8.47656 3.51172L6.64453 5.34375C6.26172 5.72656 6.07031 6.19141 6.07031 6.73828C6.07031 7.28516 6.26172 7.75 6.64453 8.13281C6.73568 8.22396 6.82682 8.30599 6.91797 8.37891C7.04557 8.45182 7.10938 8.5612 7.10938 8.70703C7.1276 9.03516 7.02734 9.30859 6.80859 9.52734L6.20703 10.1016C6.04297 10.2839 5.86068 10.3021 5.66016 10.1562C5.45964 10.0104 5.26823 9.85547 5.08594 9.69141C4.28385 8.87109 3.88281 7.88672 3.88281 6.73828C3.88281 5.58984 4.28385 4.61458 5.08594 3.8125L6.94531 1.95312C7.7474 1.15104 8.72266 0.75 9.87109 0.75Z" fill="#F3F5F6"/>
</svg>
