<svg width="25" height="25" viewBox="0 0 25 25" fill="none" xmlns="http://www.w3.org/2000/svg">
<path d="M6.67188 21H2.67578V8.15234H6.67188V21ZM4.69531 6.39062C4.0651 6.39062 3.52083 6.16146 3.0625 5.70312C2.60417 5.24479 2.375 4.70052 2.375 4.07031C2.375 3.4401 2.60417 2.89583 3.0625 2.4375C3.52083 1.97917 4.0651 1.75 4.69531 1.75C5.09635 1.75 5.46875 1.85026 5.8125 2.05078C6.1849 2.2513 6.47135 2.53776 6.67188 2.91016C6.90104 3.25391 7.01562 3.64062 7.01562 4.07031C7.01562 4.47135 6.90104 4.85807 6.67188 5.23047C6.47135 5.57422 6.1849 5.86068 5.8125 6.08984C5.46875 6.29036 5.09635 6.39062 4.69531 6.39062ZM21.625 21H17.6289V14.7266C17.6289 14.2396 17.6146 13.8529 17.5859 13.5664C17.5573 13.2513 17.4857 12.9076 17.3711 12.5352C17.2565 12.1341 17.0417 11.8333 16.7266 11.6328C16.4401 11.4323 16.0534 11.332 15.5664 11.332C14.6211 11.332 13.9766 11.6328 13.6328 12.2344C13.3177 12.8359 13.1602 13.638 13.1602 14.6406V21H9.16406V8.15234H13.0312V9.91406H13.0742C13.3607 9.34115 13.8333 8.85417 14.4922 8.45312C15.151 8.02344 15.9388 7.80859 16.8555 7.80859C17.8294 7.80859 18.6315 7.96615 19.2617 8.28125C19.9206 8.56771 20.4076 9.01172 20.7227 9.61328C21.0664 10.1862 21.2956 10.8164 21.4102 11.5039C21.5534 12.1914 21.625 13.0078 21.625 13.9531V21Z" fill="white"/>
</svg>
