<svg width="40" height="40" viewBox="0 0 40 40" fill="none" xmlns="http://www.w3.org/2000/svg">
<path d="M20 40C31.0457 40 40 31.0457 40 20C40 8.9543 31.0457 0 20 0C8.9543 0 0 8.9543 0 20C0 31.0457 8.9543 40 20 40Z" fill="#263238" fill-opacity="0.35"/>
<path opacity="0.2" d="M20 8.75C14.125 8.75 9.375 13.4375 9.375 19.25C9.375 28.4375 20 35 20 35C20 35 30.625 28.625 30.625 19.25C30.625 13.4375 25.875 8.75 20 8.75ZM20 23.75C17.25 23.75 15 21.5 15 18.75C15 16 17.25 13.75 20 13.75C22.75 13.75 25 16 25 18.75C25 21.5 22.75 23.75 20 23.75Z" fill="#231F20"/>
<path d="M20 7.5C14.125 7.5 9.375 12.1875 9.375 18C9.375 27.1875 20 33.75 20 33.75C20 33.75 30.625 27.375 30.625 18C30.625 12.1875 25.875 7.5 20 7.5ZM20 22.5C17.25 22.5 15 20.25 15 17.5C15 14.75 17.25 12.5 20 12.5C22.75 12.5 25 14.75 25 17.5C25 20.25 22.75 22.5 20 22.5Z" fill="white"/>
</svg>
