<svg width="198" height="50" viewBox="0 0 198 50" fill="none" xmlns="http://www.w3.org/2000/svg">
<path fill-rule="evenodd" clip-rule="evenodd" d="M16.0757 16.1327C17.7112 16.1327 19.3292 16.1327 19.3292 16.1327C21.5067 23.0298 22.4966 29.9835 22.5792 36.558H14.8569C15.4357 34.0522 15.8451 31.1943 15.8451 28.3791C15.8451 25.7442 15.4295 22.7569 14.6088 19.4265C15.2291 17.806 11.2005 31.3515 11.2005 31.3515L14.8569 30.5505V32.5529H11.2005C9.53046 39.8379 8.05092 45.1706 6.32537 48.5728C4.95311 48.9784 3.07402 49.3953 1.04395 49.7743C3.13747 46.2455 6.35317 37.89 6.35317 37.89C6.35317 37.89 8.56492 33.7545 6.73161 33.7545C4.89838 33.7545 3.47818 33.7545 3.47818 33.7545C1.31051 26.8328 0.310381 19.927 0.22807 13.3292H7.95043C7.37424 15.8439 6.91119 18.5826 6.91119 21.4078C6.91119 24.0335 7.31909 27.008 8.12464 30.3221C7.50394 31.9343 11.6068 18.5357 11.6068 18.5357L7.97878 19.3367V17.2007H11.5838C13.278 9.9118 14.7438 4.71385 16.482 1.31435C17.8605 0.9102 19.724 0.4905 21.7634 0.11285C19.6843 3.5889 16.4555 11.8032 16.4555 11.8032C16.4555 11.8032 14.4402 16.1327 16.0757 16.1327Z" fill="#E74C3C"/>
<path d="M45.3613 25.0441L49.6967 14.2941H52.7081L46.6852 27.7206V35.7059H44.0229V27.7206L38 14.2941H41.026L45.3613 25.0441Z" fill="#37474F"/>
<path d="M66.7034 14.2941V29.5147C66.684 31.5441 66.1021 33.1324 64.9576 34.2794C63.8132 35.4265 62.2177 36 60.1713 36C58.0764 36 56.4761 35.4412 55.3704 34.3235C54.2648 33.1961 53.7022 31.5931 53.6829 29.5147V14.2941H56.3306V29.4118C56.3306 30.8529 56.6313 31.9314 57.2326 32.6471C57.8436 33.3529 58.8232 33.7059 60.1713 33.7059C61.5291 33.7059 62.5087 33.3529 63.11 32.6471C63.721 31.9314 64.0266 30.8529 64.0266 29.4118V14.2941H66.7034Z" fill="#37474F"/>
<path d="M84.6412 35.7059H81.9644L73.4828 19.2059V35.7059H70.806V14.2941H73.4828L81.9935 30.8676V14.2941H84.6412V35.7059Z" fill="#37474F"/>
<path d="M101.881 14.2941V29.5147C101.861 31.5441 101.279 33.1324 100.135 34.2794C98.9905 35.4265 97.395 36 95.3486 36C93.2537 36 91.6534 35.4412 90.5477 34.3235C89.4421 33.1961 88.8796 31.5931 88.8602 29.5147V14.2941H91.5079V29.4118C91.5079 30.8529 91.8086 31.9314 92.4099 32.6471C93.0209 33.3529 94.0005 33.7059 95.3486 33.7059C96.7064 33.7059 97.686 33.3529 98.2873 32.6471C98.8983 31.9314 99.2039 30.8529 99.2039 29.4118V14.2941H101.881Z" fill="#37474F"/>
<path d="M115.236 30.2941C115.236 29.2255 114.95 28.4069 114.378 27.8382C113.805 27.2696 112.772 26.7157 111.279 26.1765C109.785 25.6373 108.641 25.0735 107.845 24.4853C107.06 23.8873 106.468 23.2108 106.071 22.4559C105.683 21.6912 105.489 20.8186 105.489 19.8382C105.489 18.1422 106.046 16.7451 107.162 15.6471C108.287 14.549 109.756 14 111.57 14C112.811 14 113.917 14.2843 114.887 14.8529C115.857 15.4118 116.603 16.1912 117.127 17.1912C117.651 18.1912 117.913 19.2892 117.913 20.4853H115.236C115.236 19.1618 114.921 18.1373 114.29 17.4118C113.66 16.6863 112.753 16.3235 111.57 16.3235C110.493 16.3235 109.659 16.6275 109.067 17.2353C108.476 17.8431 108.18 18.6961 108.18 19.7941C108.18 20.6961 108.5 21.451 109.14 22.0588C109.78 22.6667 110.77 23.2108 112.108 23.6912C114.193 24.3873 115.682 25.2451 116.574 26.2647C117.476 27.2843 117.927 28.6176 117.927 30.2647C117.927 32 117.37 33.3922 116.254 34.4412C115.139 35.4804 113.621 36 111.701 36C110.469 36 109.329 35.7304 108.282 35.1912C107.244 34.6422 106.425 33.8775 105.823 32.8971C105.232 31.9069 104.936 30.7745 104.936 29.5H107.613C107.613 30.8235 107.976 31.8529 108.704 32.5882C109.441 33.3235 110.44 33.6912 111.701 33.6912C112.874 33.6912 113.757 33.3873 114.348 32.7794C114.94 32.1716 115.236 31.3431 115.236 30.2941Z" fill="#37474F"/>
<path d="M138.149 30.1176H130.991L129.348 35.7059H126.612L133.436 14.2941H135.72L142.557 35.7059H139.822L138.149 30.1176ZM131.69 27.7941H137.465L134.57 18.0588L131.69 27.7941Z" fill="#37474F"/>
<path d="M149.584 25.0441L153.919 14.2941H156.931L150.908 27.7206V35.7059H148.245V27.7206L142.223 14.2941H145.249L149.584 25.0441Z" fill="#37474F"/>
<path d="M159.695 35.7059V14.2941H164.743C167.216 14.2941 169.137 15.0784 170.504 16.6471C171.872 18.2059 172.555 20.402 172.555 23.2353V26.8235C172.555 29.6569 171.862 31.848 170.475 33.3971C169.088 34.9363 167.076 35.7059 164.438 35.7059H159.695ZM162.357 16.6176V33.3971H164.496C166.368 33.3971 167.735 32.8578 168.598 31.7794C169.461 30.6912 169.903 29.0833 169.922 26.9559V23.1618C169.922 20.9069 169.491 19.2549 168.627 18.2059C167.774 17.1471 166.479 16.6176 164.743 16.6176H162.357Z" fill="#37474F"/>
<path d="M179.495 35.7059H176.833V14.2941H179.495V35.7059Z" fill="#37474F"/>
<path d="M198 35.7059H195.323L186.842 19.2059V35.7059H184.165V14.2941H186.842L195.352 30.8676V14.2941H198V35.7059Z" fill="#37474F"/>
</svg>
