<svg width="40" height="40" viewBox="0 0 40 40" fill="none" xmlns="http://www.w3.org/2000/svg">
<path d="M20 40C31.0457 40 40 31.0457 40 20C40 8.9543 31.0457 0 20 0C8.9543 0 0 8.9543 0 20C0 31.0457 8.9543 40 20 40Z" fill="#263238" fill-opacity="0.35"/>
<g filter="url(#filter0_d)">
<path fill-rule="evenodd" clip-rule="evenodd" d="M25.1 24.6H26V30L18.8 24.6H20.4737L22.0047 25.8L25.1 28.2V25.8V24.6Z" fill="white"/>
<path fill-rule="evenodd" clip-rule="evenodd" d="M11 12.8C11 11.8059 11.8059 11 12.8 11H27.2C28.1941 11 29 11.8059 29 12.8V24C29 24.9941 28.1941 25.8 27.2 25.8H25.1V24.6H27.2C27.5314 24.6 27.8 24.3314 27.8 24V12.8C27.8 12.4686 27.5314 12.2 27.2 12.2H12.8C12.4686 12.2 12.2 12.4686 12.2 12.8V24C12.2 24.3314 12.4686 24.6 12.8 24.6H20.4737L22.0047 25.8H12.8C11.8059 25.8 11 24.9941 11 24V12.8Z" fill="white"/>
<path d="M15 15.5C15 15.2239 15.2239 15 15.5 15H24.5C24.7761 15 25 15.2239 25 15.5C25 15.7761 24.7761 16 24.5 16H15.5C15.2239 16 15 15.7761 15 15.5Z" fill="white"/>
<path d="M15 18.5C15 18.2239 15.2239 18 15.5 18H24.5C24.7761 18 25 18.2239 25 18.5C25 18.7761 24.7761 19 24.5 19H15.5C15.2239 19 15 18.7761 15 18.5Z" fill="white"/>
<path d="M15 21.5C15 21.2239 15.2239 21 15.5 21H24.5C24.7761 21 25 21.2239 25 21.5C25 21.7761 24.7761 22 24.5 22H15.5C15.2239 22 15 21.7761 15 21.5Z" fill="white"/>
</g>
<defs>
<filter id="filter0_d" x="11" y="11" width="18" height="20" filterUnits="userSpaceOnUse" color-interpolation-filters="sRGB">
<feFlood flood-opacity="0" result="BackgroundImageFix"/>
<feColorMatrix in="SourceAlpha" type="matrix" values="0 0 0 0 0 0 0 0 0 0 0 0 0 0 0 0 0 0 127 0"/>
<feOffset dy="1"/>
<feColorMatrix type="matrix" values="0 0 0 0 0 0 0 0 0 0 0 0 0 0 0 0 0 0 0.2 0"/>
<feBlend mode="normal" in2="BackgroundImageFix" result="effect1_dropShadow"/>
<feBlend mode="normal" in="SourceGraphic" in2="effect1_dropShadow" result="shape"/>
</filter>
</defs>
</svg>
