<svg width="25" height="40" viewBox="0 0 25 40" fill="none" xmlns="http://www.w3.org/2000/svg">
<path fill-rule="evenodd" clip-rule="evenodd" d="M9.375 40C4.19733 40 0 35.5228 0 30V10C0 4.47715 4.19733 -1.19209e-06 9.375 -1.19209e-06H15.625C20.8027 -1.19209e-06 25 4.47715 25 10V30C25 35.5228 20.8027 40 15.625 40H9.375ZM15 37.3333H10C5.85786 37.3333 2.5 33.4531 2.5 28.6667V11.3333C2.5 6.54686 5.85786 2.66667 10 2.66667H15C19.1421 2.66667 22.5 6.54686 22.5 11.3333V28.6667C22.5 33.4531 19.1421 37.3333 15 37.3333Z" fill="#F3F5F6"/>
<path d="M10 30.6667C10 32.1394 11.1193 33.3333 12.5 33.3333C13.8807 33.3333 15 32.1394 15 30.6667V28C15 26.5272 13.8807 25.3333 12.5 25.3333C11.1193 25.3333 10 26.5272 10 28V30.6667Z" fill="#F3F5F6"/>
</svg>
