<svg width="40" height="40" viewBox="0 0 40 40" fill="none" xmlns="http://www.w3.org/2000/svg">
<path d="M20 40C31.0457 40 40 31.0457 40 20C40 8.9543 31.0457 0 20 0C8.9543 0 0 8.9543 0 20C0 31.0457 8.9543 40 20 40Z" fill="#263238" fill-opacity="0.35"/>
<g filter="url(#filter0_d)">
<path fill-rule="evenodd" clip-rule="evenodd" d="M14.7958 7C13.804 7 13 7.80274 13 8.79297V32.207C13 33.1973 13.804 34 14.7958 34H26.2042C27.196 34 28 33.1973 28 32.207V8.79297C28 7.80274 27.196 7 26.2042 7H14.7958ZM25.7728 7.84375H15.2272C14.3472 7.84375 13.8451 8.38538 13.8451 9.31372V31.6863C13.8451 32.6146 14.3472 33.1562 15.2272 33.1562H25.7728C26.6528 33.1562 27.1549 32.6146 27.1549 31.6863V9.31372C27.1549 8.38538 26.6528 7.84375 25.7728 7.84375Z" fill="white"/>
<path d="M17.9648 9.37305C17.9648 9.11093 18.1776 8.89844 18.4401 8.89844H22.5599C22.8224 8.89844 23.0352 9.11093 23.0352 9.37305C23.0352 9.63517 22.8224 9.84766 22.5599 9.84766H18.4401C18.1776 9.84766 17.9648 9.63517 17.9648 9.37305Z" fill="white"/>
<path fill-rule="evenodd" clip-rule="evenodd" d="M20.5 30.7656C21.2001 30.7656 21.7676 30.199 21.7676 29.5C21.7676 28.801 21.2001 28.2344 20.5 28.2344C19.7999 28.2344 19.2324 28.801 19.2324 29.5C19.2324 30.199 19.7999 30.7656 20.5 30.7656Z" fill="white"/>
</g>
<defs>
<filter id="filter0_d" x="13" y="7" width="15" height="28" filterUnits="userSpaceOnUse" color-interpolation-filters="sRGB">
<feFlood flood-opacity="0" result="BackgroundImageFix"/>
<feColorMatrix in="SourceAlpha" type="matrix" values="0 0 0 0 0 0 0 0 0 0 0 0 0 0 0 0 0 0 127 0"/>
<feOffset dy="1"/>
<feColorMatrix type="matrix" values="0 0 0 0 0.137255 0 0 0 0 0.121569 0 0 0 0 0.12549 0 0 0 0.2 0"/>
<feBlend mode="normal" in2="BackgroundImageFix" result="effect1_dropShadow"/>
<feBlend mode="normal" in="SourceGraphic" in2="effect1_dropShadow" result="shape"/>
</filter>
</defs>
</svg>
