<svg width="120" height="120" viewBox="0 0 120 120" fill="none" xmlns="http://www.w3.org/2000/svg">
<path d="M58.638 0.000981529C53.7439 0.0237222 49.0702 0.441115 44.9578 1.1688C32.8432 3.30905 30.6437 7.78878 30.6437 16.0502V26.961H59.2719V30.5979H30.6437H19.8997C11.5795 30.5979 4.29414 35.5988 2.01536 45.1122C-0.613176 56.0168 -0.729767 62.8215 2.01536 74.2076C4.05036 82.6831 8.91022 88.722 17.2304 88.722H27.0735V75.6424C27.0735 66.1932 35.2492 57.8582 44.9578 57.8582H73.5527C81.5125 57.8582 87.8669 51.3043 87.8669 43.3104V16.0502C87.8669 8.29175 81.3218 2.46365 73.5527 1.1688C68.6348 0.350153 63.5321 -0.0217591 58.638 0.000981529ZM43.156 8.77632C46.1131 8.77632 48.528 11.2306 48.528 14.2484C48.528 17.2555 46.1131 19.6871 43.156 19.6871C40.1883 19.6871 37.784 17.2555 37.784 14.2484C37.784 11.2306 40.1883 8.77632 43.156 8.77632Z" fill="#306998"/>
<path d="M92.4371 30.5977V43.3102C92.4371 53.1661 84.0812 61.4615 74.5527 61.4615H45.9578C38.1252 61.4615 31.6437 68.1652 31.6437 76.0092V103.269C31.6437 111.028 38.3902 115.591 45.9578 117.817C55.0199 120.482 63.71 120.963 74.5527 117.817C81.76 115.73 88.8669 111.531 88.8669 103.269V92.3587H60.272V88.7218H88.8669H103.181C111.501 88.7218 114.602 82.9183 117.495 74.2074C120.484 65.2397 120.357 56.6159 117.495 45.112C115.439 36.8292 111.512 30.5977 103.181 30.5977H92.4371ZM76.3545 99.6325C79.3222 99.6326 81.7265 102.064 81.7265 105.071C81.7265 108.089 79.3222 110.543 76.3545 110.543C73.3974 110.543 70.9826 108.089 70.9826 105.071C70.9826 102.064 73.3974 99.6325 76.3545 99.6325Z" fill="#FFD43B"/>
</svg>
