<svg width="40" height="40" viewBox="0 0 40 40" fill="none" xmlns="http://www.w3.org/2000/svg">
<path d="M20 40C31.0457 40 40 31.0457 40 20C40 8.9543 31.0457 0 20 0C8.9543 0 0 8.9543 0 20C0 31.0457 8.9543 40 20 40Z" fill="#263238" fill-opacity="0.35"/>
<g filter="url(#filter0_d)">
<path d="M24.7461 21.957C24.7461 24.3359 22.4492 25.4375 20.2461 25.4375C17.6094 25.4375 15.4062 24.2656 15.4062 22.8242C15.4062 22.1797 15.7695 21.5937 16.5898 21.5937C17.8437 21.5937 17.9609 23.3984 20.1289 23.3984C21.1602 23.3984 21.8281 22.9414 21.8281 22.3437C21.8281 21.5937 21.1836 21.4766 20.1406 21.2187L18.4297 20.7969C16.7187 20.3867 15.4062 19.6836 15.4062 17.7148C15.4062 15.3359 17.7617 14.457 19.7891 14.457C22.0039 14.457 24.2422 15.3359 24.2422 16.6836C24.2422 17.3633 23.7852 17.9609 23.0234 17.9609C21.8867 17.9609 21.8516 16.6133 20.0117 16.6133C18.9805 16.6133 18.3242 16.8945 18.3242 17.5156C18.3242 18.1953 18.9922 18.3477 19.8828 18.5586L21.1016 18.8398C22.7656 19.2148 24.7461 19.918 24.7461 21.957ZM29 24.5C29 23.4687 28.6484 22.5195 28.0625 21.7578C28.1797 21.1953 28.25 20.5977 28.25 20C28.25 15.4414 24.5586 11.75 20 11.75C19.4023 11.75 18.8047 11.8203 18.2422 11.9375C17.4805 11.3516 16.5312 11 15.5 11C13.0156 11 11 13.0156 11 15.5C11 16.5312 11.3516 17.4805 11.9375 18.2422C11.8203 18.8047 11.75 19.4023 11.75 20C11.75 24.5586 15.4414 28.25 20 28.25C20.5977 28.25 21.1953 28.1797 21.7578 28.0625C22.5195 28.6484 23.4687 29 24.5 29C26.9844 29 29 26.9844 29 24.5Z" fill="white"/>
</g>
<defs>
<filter id="filter0_d" x="11" y="11" width="18" height="19" filterUnits="userSpaceOnUse" color-interpolation-filters="sRGB">
<feFlood flood-opacity="0" result="BackgroundImageFix"/>
<feColorMatrix in="SourceAlpha" type="matrix" values="0 0 0 0 0 0 0 0 0 0 0 0 0 0 0 0 0 0 127 0"/>
<feOffset dy="1"/>
<feColorMatrix type="matrix" values="0 0 0 0 0 0 0 0 0 0 0 0 0 0 0 0 0 0 0.2 0"/>
<feBlend mode="normal" in2="BackgroundImageFix" result="effect1_dropShadow"/>
<feBlend mode="normal" in="SourceGraphic" in2="effect1_dropShadow" result="shape"/>
</filter>
</defs>
</svg>
